<?xml version="1.0" encoding="utf-8"?>
<svg xmlns="http://www.w3.org/2000/svg" xmlns:xlink="http://www.w3.org/1999/xlink">
<defs>
	<style><![CDATA[
		.sprite { display: none; }
		.sprite:target { display: inline; }
	]]></style>
</defs>

<g class="sprite" id="cloud1" viewBox="0 0 137.989 61.485">
	<path opacity="0.5" fill="#FFFFFF" enable-background="new    " d="M1,50.735c0,5.936,4.609,10.75,10.3,10.75h117.392
		c5.688,0,10.298-4.814,10.298-10.75c0-5.951-4.61-10.758-10.298-10.758h-1.537c0.288-1.287,0.456-2.607,0.456-3.959
		c0-11.98-11.757-21.687-26.257-21.687c-3.643,0-7.107,0.607-10.254,1.711C86.488,6.643,75.347,0,62.306,0
		C45.15,0,31.239,11.493,31.239,25.663c0,0.854,0.057,1.694,0.158,2.521c-2.024-1.394-4.599-2.275-7.439-2.275
		c-6.428,0-11.642,4.309-11.642,9.625c0,1.609,0.524,3.107,1.379,4.443H11.3C5.609,39.977,1,44.784,1,50.735z"/>
</g>
<g class="sprite" id="cloud2">
	<path opacity="0.5" fill="#FFFFFF" enable-background="new    " d="M1,22.022c0,2.574,2,4.664,4.471,4.664h50.954
		c2.469,0,4.469-2.09,4.469-4.664c0-2.584-2-4.67-4.469-4.67h-0.668c0.129-0.564,0.195-1.141,0.197-1.719
		c0-5.2-5.102-9.414-11.396-9.414c-1.58,0-3.084,0.264-4.449,0.743C38.106,2.883,33.27,0,27.609,0
		c-7.446,0-13.484,4.988-13.484,11.139c0,0.371,0.025,0.735,0.069,1.095c-0.952-0.648-2.078-0.992-3.229-0.987
		c-2.79,0-5.054,1.87-5.054,4.176c0,0.699,0.229,1.35,0.599,1.93H5.471C3,17.352,1,19.438,1,22.022z"/>
</g>
<g class="sprite" id="cloud3">
	<path opacity="0.5" fill="#FFFFFF" enable-background="new    " d="M1,26.274c0,3.072,2.387,5.564,5.334,5.564h60.79
		c2.946,0,5.333-2.492,5.333-5.564c0-3.082-2.387-5.572-5.333-5.572h-0.796c0.149-0.666,0.236-1.35,0.236-2.051
		c0-6.204-6.088-11.231-13.598-11.231c-1.886,0-3.68,0.315-5.309,0.887C45.27,3.439,39.5,0,32.747,0
		c-8.884,0-16.088,5.951-16.088,13.289c0,0.442,0.03,0.877,0.082,1.307c-1.136-0.774-2.479-1.186-3.853-1.179
		c-3.329,0-6.029,2.23-6.029,4.984c0,0.832,0.271,1.609,0.715,2.301h-1.24C3.387,20.702,1,23.192,1,26.274z"/>
</g>
<g class="sprite" id="cloud4">
	<path opacity="0.5" fill="#FFFFFF" enable-background="new    " d="M1,26.274c0,3.072,2.387,5.564,5.334,5.564h60.79
		c2.946,0,5.333-2.492,5.333-5.564c0-3.082-2.387-5.572-5.333-5.572h-0.796c0.149-0.666,0.236-1.35,0.236-2.051
		c0-6.204-6.088-11.231-13.598-11.231c-1.886,0-3.68,0.315-5.309,0.887C45.27,3.439,39.5,0,32.747,0
		c-8.884,0-16.088,5.951-16.088,13.289c0,0.442,0.03,0.877,0.082,1.307c-1.136-0.774-2.479-1.186-3.853-1.179
		c-3.329,0-6.029,2.23-6.029,4.984c0,0.832,0.271,1.609,0.715,2.301h-1.24C3.387,20.702,1,23.192,1,26.274z"/>
</g>
<g class="sprite" id="cloud5">
	<path opacity="0.5" fill="#FFFFFF" enable-background="new    " d="M1,42.579c0,4.98,3.867,9.021,8.643,9.021h98.52
		c4.775,0,8.644-4.041,8.644-9.021c0-4.994-3.868-9.027-8.644-9.027h-1.288c0.241-1.08,0.382-2.188,0.382-3.322
		c0-10.055-9.866-18.202-22.036-18.202c-3.057,0-5.964,0.51-8.604,1.437C72.745,5.575,63.395,0,52.45,0
		C38.051,0,26.377,9.646,26.377,21.538c0,0.717,0.049,1.422,0.133,2.116c-1.698-1.17-3.859-1.909-6.244-1.909
		c-5.395,0-9.77,3.615-9.77,8.078c0,1.35,0.44,2.604,1.157,3.729h-2.01C4.867,33.551,1,37.584,1,42.579z"/>
</g>
<g class="sprite" id="cloud6">
	<path opacity="0.5" fill="#FFFFFF" enable-background="new    " d="M1,40.711c0,4.762,3.699,8.625,8.266,8.625h94.197
		c4.564,0,8.264-3.863,8.264-8.625c0-4.775-3.699-8.633-8.264-8.633h-1.232c0.23-1.033,0.365-2.092,0.365-3.178
		c0-9.613-9.434-17.403-21.07-17.403c-2.922,0-5.701,0.488-8.227,1.374C69.598,5.33,60.658,0,50.193,0
		C36.428,0,25.266,9.223,25.266,20.592c0,0.686,0.045,1.359,0.127,2.023c-1.625-1.118-3.691-1.825-5.971-1.825
		c-5.158,0-9.342,3.457-9.342,7.722c0,1.291,0.422,2.492,1.107,3.566H9.266C4.699,32.079,1,35.936,1,40.711z"/>
</g>
<g class="sprite" id="cloud7">
	<path opacity="0.5" fill="#FFFFFF" enable-background="new    " d="M1,22.021c0,2.575,2,4.665,4.471,4.665h50.953
		c2.469,0,4.469-2.09,4.469-4.665c0-2.584-2-4.67-4.469-4.67h-0.668c0.129-0.564,0.195-1.141,0.197-1.719
		c0-5.199-5.102-9.413-11.396-9.413c-1.58,0-3.084,0.264-4.449,0.743C38.105,2.883,33.27,0,27.609,0
		c-7.447,0-13.484,4.988-13.484,11.139c0,0.371,0.025,0.735,0.068,1.095c-0.952-0.648-2.078-0.992-3.229-0.987
		c-2.791,0-5.055,1.869-5.055,4.177c0,0.698,0.229,1.349,0.6,1.929H5.471C3,17.352,1,19.438,1,22.021z"/>
</g>
<g class="sprite" id="android-icon">
	<path fill="#A4C639" d="M19.15,1.097c0.599-0.399,1.196-0.599,1.896-0.699C10.873,2.394,1.101,11.967,1.002,23.334
		C0.803,38.491,15.361,49.661,18.851,52.255C-8.671,16.354,19.15,1.097,19.15,1.097z"/>
	<path fill="#A4C639" d="M20.847,52.451h2.492c-9.572-35.698,0.598-52.152,0.598-52.152C24.137,0.198,24.335,0.1,24.538,0
		c-0.999,0-1.896,0.1-2.893,0.299c0.398-0.101,0.599-0.101,0.599-0.101C3.396,15.257,19.349,49.46,20.847,52.451z M26.829,52.451
		h2.494c1.592-3.09,18.943-36.297,0.396-51.853h0.2c-0.999-0.299-1.996-0.399-2.993-0.399
		C34.906,15.756,27.227,50.458,26.829,52.451z"/>
	<path fill="#A4C639" d="M31.318,52.255c3.688-2.692,17.55-14.162,17.948-28.223c0.298-10.171-7.579-19.146-16.555-22.537
		C35.705,3.491,57.641,19.744,31.318,52.255z"/>
	<path fill="#F1F1F1" d="M20.847,52.451C19.349,49.46,3.396,15.257,22.44,0.199c0,0-0.297,0-0.597,0.101
		c-0.199,0-0.398,0.099-0.698,0.099c-0.697,0.1-1.396,0.4-1.895,0.699c0,0-27.921,15.357-0.299,51.158
		c0.101,0,0.101,0.097,0.199,0.097L20.847,52.451z M29.82,0.698c18.548,15.456,1.197,48.865-0.398,51.851h1.597v0.103
		c0.1-0.103,0.2-0.2,0.398-0.3C57.543,19.745,35.706,3.69,32.614,1.596c-0.897-0.399-1.896-0.599-2.692-0.898
		C29.82,0.598,29.82,0.698,29.82,0.698z"/>
	<path fill="#F1F1F1" d="M23.239,52.451h3.492c0.396-1.993,7.977-36.695,0.099-52.351C26.33,0,25.834,0,25.333,0h-0.697
		c-0.199,0.1-0.397,0.1-0.599,0.299C24.036,0.299,13.766,16.753,23.239,52.451z"/>
	<path fill="#758E0C" d="M20.049,62.33l-0.7-8.484h0.4l0.199,1.797l0.798-1.495h0.101l-0.899,1.896l0.299,6.286H20.049z
		 M24.635,60.731h0.2l0.099-4.491l1.296-1.896l-0.196-0.1l-1.1,1.597V53.45h-0.196v2.392l-1.2-1.795l-0.199,0.101l1.399,1.896
		L24.635,60.731L24.635,60.731z M29.522,61.33l0.5-5.09l-1.1-2.092h0.099l1.001,1.695l0.295-1.795h0.2l-0.697,7.383L29.522,61.33z"
		/>
	<path fill="#A4C639" d="M30.419,54.446l-10.869-0.1l-2.793-3.688l16.356,0.201L30.419,54.446z"/>
	<path fill="#758E0C" d="M19.15,53.846l-0.398-0.395l12.365,0.101l-0.398,0.396L19.15,53.846z M17.655,51.753l-0.399-0.397
		l15.457,0.102l-0.396,0.395L17.655,51.753z"/>
	<g>

			<linearGradient id="SVGID_1_" gradientUnits="userSpaceOnUse" x1="1959.0449" y1="-2925.623" x2="1997.8579" y2="-2925.623" gradientTransform="matrix(0.296 0 0 -0.296 -562.4954 -804.2035)">
			<stop  offset="0.092" style="stop-color:#6CC04A"/>
			<stop  offset="0.286" style="stop-color:#66B848"/>
			<stop  offset="0.597" style="stop-color:#54A044"/>
			<stop  offset="0.862" style="stop-color:#41873F"/>
		</linearGradient>
		<path fill="url(#SVGID_1_)" d="M22.641,61.751l-0.062,0.06h0.062V61.751z"/>
		<path fill="#A4C639" d="M21.612,73.246c0.786,0,1.391,0.604,1.391,1.389v6.051c0.012,0.756-0.591,1.38-1.348,1.392
			c-0.015,0-0.029,0-0.043,0c-0.755,0.013-1.378-0.589-1.391-1.345c0-0.016,0-0.032,0-0.047v-6.051
			C20.161,73.91,20.825,73.246,21.612,73.246z"/>
		<path fill="#A4C639" d="M18.346,65.987v9.377c0,0.965,0.785,1.753,1.753,1.753h9.315c0.969,0,1.754-0.788,1.754-1.753v-9.196
			v-0.182L18.346,65.987z"/>
		<path fill="#A4C639" d="M27.964,73.246c0.786,0,1.39,0.604,1.39,1.389v6.051c0,0.786-0.604,1.392-1.39,1.392
			c-0.757,0.012-1.38-0.591-1.392-1.348c0-0.015,0-0.03,0-0.044v-6.051C26.572,73.91,27.177,73.246,27.964,73.246z M16.107,66.834
			c0.756-0.012,1.379,0.591,1.392,1.348c0,0.015,0,0.029,0,0.044v6.049c0.013,0.756-0.59,1.38-1.347,1.393c-0.015,0-0.03,0-0.045,0
			c-0.757,0.011-1.379-0.593-1.39-1.35c0-0.015,0-0.029,0-0.043v-6.049C14.655,67.44,15.32,66.834,16.107,66.834z M33.468,66.834
			c0.786,0,1.39,0.606,1.39,1.392v6.049c0.013,0.756-0.59,1.38-1.347,1.393c-0.015,0-0.029,0-0.043,0
			c-0.757,0.012-1.38-0.591-1.392-1.348c0-0.015,0-0.03,0-0.045v-6.049c-0.012-0.756,0.591-1.38,1.348-1.392
			C33.438,66.834,33.454,66.834,33.468,66.834z M18.406,65.382c0.06-2.844,2.479-5.143,5.686-5.445h1.391
			c3.146,0.302,5.626,2.601,5.686,5.445H18.406z"/>
		<path fill="none" stroke="#A4C639" stroke-linecap="round" stroke-linejoin="round" d="M18.89,59.696l1.512,2.6 M30.685,59.696
			l-1.51,2.6"/>
		<path fill="#FFFFFF" d="M22.881,62.842c0.015,0.385-0.286,0.709-0.671,0.724c-0.018,0.001-0.036,0.001-0.054,0
			c-0.386,0.015-0.711-0.287-0.726-0.673c0-0.017,0-0.034,0-0.051c-0.016-0.386,0.285-0.712,0.671-0.728
			c0.019-0.001,0.037-0.001,0.055,0C22.579,62.114,22.881,62.479,22.881,62.842z M28.326,62.842c0.014,0.386-0.287,0.71-0.673,0.724
			c-0.018,0.001-0.036,0.001-0.053,0c-0.385,0.015-0.709-0.285-0.725-0.67c0-0.018,0-0.036,0-0.054
			c-0.016-0.386,0.285-0.712,0.671-0.728c0.018-0.001,0.036-0.001,0.054,0C28.024,62.114,28.326,62.479,28.326,62.842z"/>
	</g>
</g>
<g class="sprite" id="angular-js-icon">
	<path fill="#A6120D" d="M27.437,1.599c0.872-0.581,1.742-0.873,2.761-1.019C15.381,3.488,1.146,17.431,1.003,33.988
		C0.712,56.066,21.918,72.335,27.001,76.114C-13.087,23.821,27.437,1.599,27.437,1.599z"/>
	<path fill="#A6120D" d="M29.908,76.4h3.631c-13.944-51.997,0.87-75.965,0.87-75.965C34.7,0.289,34.989,0.145,35.283,0
		c-1.454,0-2.761,0.146-4.213,0.435c0.58-0.146,0.872-0.146,0.872-0.146C4.489,22.223,27.726,72.043,29.908,76.4z M38.622,76.4
		h3.633c2.318-4.501,27.593-52.869,0.578-75.528h0.291c-1.455-0.437-2.908-0.582-4.359-0.582
		C50.388,22.95,39.201,73.498,38.622,76.4z"/>
	<path fill="#A6120D" d="M45.161,76.114c5.373-3.922,25.563-20.628,26.143-41.109C71.738,20.191,60.265,7.117,47.19,2.178
		C51.551,5.086,83.501,28.76,45.161,76.114z"/>
	<path fill="#F1F1F1" d="M29.908,76.4c-2.183-4.356-25.419-54.177,2.32-76.109c0,0-0.433,0-0.869,0.147
		c-0.29,0-0.58,0.144-1.018,0.144c-1.016,0.146-2.032,0.583-2.76,1.019c0,0-40.669,22.369-0.435,74.516
		c0.146,0,0.146,0.143,0.29,0.143L29.908,76.4z M42.979,1.018c27.017,22.513,1.744,71.174-0.58,75.525h2.325v0.15
		c0.146-0.15,0.291-0.292,0.58-0.438c38.054-47.494,6.248-70.88,1.745-73.929c-1.308-0.582-2.763-0.873-3.922-1.308
		C42.979,0.872,42.979,1.018,42.979,1.018z"/>
	<path fill="#F1F1F1" d="M33.393,76.4h5.088c0.576-2.902,11.618-53.45,0.143-76.254C37.896,0,37.174,0,36.443,0h-1.016
		c-0.29,0.146-0.579,0.146-0.871,0.435C34.554,0.435,19.594,24.403,33.393,76.4z"/>
	<path fill="#A6120D" d="M28.746,87.876l-1.02-9.445h0.584l0.29,2.617l1.162-2.175h0.146l-1.308,2.76l0.435,6.243H28.746z
		 M35.426,87.002h0.291l0.145-5.084l1.888-2.76l-0.286-0.146l-1.602,2.325v-3.482h-0.284v3.483l-1.748-2.614l-0.29,0.148
		l2.038,2.761L35.426,87.002z M42.544,87.876l0.727-5.958l-1.601-3.045h0.143l1.458,2.466l0.432-2.614h0.29l-1.014,9.299
		L42.544,87.876z"/>
	<path fill="#B72929" d="M43.851,79.304L28.02,79.159l-4.069-5.37l23.824,0.292L43.851,79.304z"/>
	<path fill="#A6120D" d="M27.437,78.431l-0.581-0.575l18.012,0.147l-0.581,0.577L27.437,78.431L27.437,78.431z M25.259,75.383
		l-0.581-0.579l22.513,0.148l-0.576,0.576L25.259,75.383z"/>
	<g>
		<path fill="#B3B3B3" d="M24.83,106.817l10.908,5.994l10.966-6.078l2.044-16.948L35.726,85.31l-12.938,4.553L24.83,106.817z"/>
		<path fill="#A6120D" d="M35.696,111.381l9.855-5.458l1.909-15.162l-11.764-4.012V111.381z"/>
		<path fill="#DD1B16" d="M35.696,111.381V86.749l-11.46,4.086l1.752,15.161L35.696,111.381z"/>
		<path fill="#F2F2F2" d="M38.933,99.862l-3.238,1.515h-3.413l-1.605,4.011l-2.981,0.053l8.001-17.797L38.933,99.862z M38.621,99.1
			l-2.904-5.746l-2.379,5.647h2.36L38.621,99.1z"/>
		<path fill="#B3B3B3" d="M38.422,99.003H35.7l-0.004,2.366l3.757,0.007l1.756,4.067l2.854,0.053l-8.367-17.853l0.02,5.711
			L38.422,99.003z"/>
	</g>
</g>
<g class="sprite" id="codeigniter-icon">
	<path fill="#EE4323" d="M27.437,1.599c0.872-0.581,1.742-0.873,2.761-1.019C15.381,3.488,1.146,17.432,1.003,33.988
		C0.712,56.066,21.918,72.336,27.001,76.114C-13.087,23.821,27.437,1.599,27.437,1.599z"/>
	<path fill="#EE4323" d="M29.908,76.4h3.631c-13.944-51.997,0.87-75.964,0.87-75.964c0.291-0.146,0.58-0.29,0.874-0.435
		c-1.454,0-2.761,0.146-4.213,0.435c0.58-0.146,0.872-0.146,0.872-0.146C4.489,22.224,27.725,72.044,29.908,76.4z M38.622,76.4
		h3.633c2.318-4.501,27.593-52.869,0.578-75.528h0.291c-1.455-0.437-2.908-0.582-4.359-0.582
		C50.387,22.951,39.201,73.498,38.622,76.4z"/>
	<path fill="#EE4323" d="M45.161,76.114c5.373-3.922,25.563-20.628,26.143-41.109C71.739,20.191,60.265,7.117,47.191,2.178
		C51.551,5.086,83.501,28.76,45.161,76.114z"/>
	<path fill="#F1F1F1" d="M29.908,76.4c-2.183-4.356-25.419-54.177,2.32-76.109c0,0-0.433,0-0.869,0.147
		c-0.29,0-0.58,0.144-1.018,0.144c-1.016,0.146-2.032,0.583-2.76,1.019c0,0-40.669,22.369-0.435,74.516
		c0.146,0,0.146,0.143,0.29,0.143L29.908,76.4z M42.979,1.018c27.017,22.513,1.744,71.174-0.58,75.525h2.325v0.15
		c0.146-0.15,0.291-0.292,0.58-0.438c38.054-47.494,6.247-70.879,1.744-73.929c-1.308-0.582-2.763-0.873-3.922-1.308
		C42.979,0.873,42.979,1.018,42.979,1.018z"/>
	<path fill="#F1F1F1" d="M33.392,76.4h5.088c0.576-2.902,11.618-53.45,0.143-76.254C37.895,0,37.173,0,36.442,0h-1.016
		c-0.29,0.146-0.579,0.146-0.871,0.435C34.553,0.436,19.594,24.403,33.392,76.4z"/>
	<path fill="#EE4323" d="M28.746,87.877l-1.021-9.445h0.584l0.29,2.617l1.162-2.176h0.147l-1.309,2.761l0.436,6.243H28.746z
		 M35.426,87.003h0.291l0.145-5.084l1.888-2.76l-0.286-0.146l-1.602,2.325v-3.483h-0.285v3.483l-1.748-2.614l-0.29,0.148
		l2.038,2.761L35.426,87.003z M42.544,87.877l0.727-5.958l-1.601-3.046h0.143l1.458,2.467l0.432-2.614h0.29l-1.014,9.298
		L42.544,87.877z"/>
	<path fill="#DB2E21" d="M43.85,79.305l-15.831-0.146l-4.068-5.37l23.824,0.293L43.85,79.305z"/>
	<path fill="#EE4323" d="M27.437,78.432l-0.581-0.576l18.012,0.147l-0.581,0.578L27.437,78.432z M25.259,75.384l-0.581-0.579
		l22.513,0.148l-0.576,0.576L25.259,75.384z"/>
	<circle fill="#EE4323" cx="35.644" cy="98.062" r="13.209"/>
	<path fill="#FFFFFF" d="M33.509,106.014c-1.066-0.479-2.078-1.652-2.078-2.824c0-1.333,0.853-2.451,1.865-3.145
		c-0.106,0.48-0.213,0.905,0.106,1.332c0.267,0.374,0.8,0.587,1.28,0.479c1.118-0.264,1.172-1.438,0.479-2.186
		c-0.639-0.69-1.278-1.49-1.012-2.504c0.112-0.533,0.415-1.007,0.853-1.331c-0.319,0.798,0.586,1.597,1.119,1.971
		c1.014,0.692,2.078,1.227,2.985,2.026c0.958,0.854,1.65,1.971,1.544,3.303c-0.159,1.438-1.278,2.452-2.558,2.932
		c2.717-0.64,5.49-2.77,5.543-5.756c0.054-2.452-1.651-4.369-3.731-5.438l-0.105-0.052c0.053,0.159,0.053,0.268,0.053,0.374
		c0-0.054,0.053-0.159,0.053-0.267c0,0.107,0,0.213-0.053,0.267v-0.054c-0.053,0.105-0.106,0.266-0.158,0.373l0.052-0.053
		c-0.426,0.69-1.546,0.852-2.132,0.105c-0.905-1.173,0-2.398,0.158-3.624c0.163-1.545-0.798-3.038-1.97-3.889
		c0.64,1.065-0.213,2.449-0.906,3.249c-0.692,0.748-1.492,1.385-2.238,2.08c-0.8,0.745-1.545,1.545-2.239,2.397
		c-1.332,1.759-2.132,3.942-1.545,6.128C29.512,104.149,31.431,105.536,33.509,106.014z"/>
</g>
<g class="sprite" id="css3-icon">
	<path fill="#2277FF" d="M23.651,1.37c0.747-0.499,1.494-0.749,2.365-0.873C13.321,2.988,1.125,14.935,1.002,29.121
		c-0.249,18.917,17.92,32.854,22.275,36.093C-11.069,20.41,23.651,1.37,23.651,1.37L23.651,1.37z"/>
	<path fill="#2277FF" d="M25.77,65.459h3.111C16.934,20.908,29.625,0.373,29.625,0.373L30.375,0c-1.247,0-2.367,0.125-3.61,0.373
		c0.497-0.125,0.747-0.125,0.747-0.125C3.99,19.041,23.898,61.728,25.77,65.459z M33.234,65.459h3.113
		c1.985-3.855,23.642-45.298,0.495-64.711h0.249c-1.247-0.375-2.491-0.499-3.735-0.499C43.315,19.664,33.731,62.973,33.234,65.459z"
		/>
	<path fill="#2277FF" d="M38.837,65.214c4.603-3.359,21.901-17.674,22.398-35.222C61.609,17.3,51.778,6.098,40.576,1.866
		C44.313,4.357,71.687,24.641,38.837,65.214z"/>
	<path fill="#F1F1F1" d="M25.77,65.459c-1.871-3.731-21.779-46.418,1.989-65.21c0,0-0.372,0-0.745,0.126
		c-0.25,0-0.498,0.123-0.873,0.123c-0.87,0.125-1.742,0.5-2.364,0.873c0,0-34.846,19.166-0.373,63.845
		c0.124,0,0.124,0.123,0.248,0.123L25.77,65.459z M36.967,0.872c23.149,19.29,1.495,60.982-0.497,64.709h1.993v0.129
		c0.124-0.129,0.249-0.25,0.497-0.375c32.604-40.693,5.352-60.73,1.496-63.342c-1.122-0.499-2.369-0.748-3.361-1.121
		C36.967,0.748,36.967,0.872,36.967,0.872z"/>
	<path fill="#F1F1F1" d="M28.754,65.459h4.359c0.494-2.486,9.954-45.795,0.123-65.333c-0.625-0.125-1.243-0.125-1.87-0.125h-0.87
		C30.249,0.126,30,0.126,29.75,0.374C29.749,0.373,16.933,20.908,28.754,65.459z"/>
	<path fill="#2277FF" d="M24.773,75.292l-0.875-8.093h0.5l0.25,2.242l0.996-1.864h0.125l-1.121,2.366l0.373,5.349H24.773z
		 M30.498,74.544h0.249l0.125-4.355l1.616-2.364L32.244,67.7l-1.372,1.992v-2.985h-0.245v2.985l-1.498-2.24l-0.248,0.127
		l1.745,2.365L30.498,74.544z M36.594,75.292l0.624-5.104l-1.372-2.611h0.122l1.25,2.114l0.37-2.239h0.248l-0.869,7.967
		L36.594,75.292z"/>
	<path fill="#90BBFF" d="M37.713,67.947L24.15,67.823l-3.485-4.601l20.414,0.251L37.713,67.947z"/>
	<path fill="#2277FF" d="M23.651,67.199l-0.498-0.492l15.432,0.126l-0.497,0.495L23.651,67.199z M21.786,64.589l-0.498-0.497
		l19.29,0.127l-0.493,0.493L21.786,64.589z"/>
	<g>
		<path fill="#264DE4" d="M38.429,73.39l-1.405,15.744l-6.318,1.752l-6.3-1.75L23.002,73.39H38.429z"/>
		<path fill="#2965F1" d="M35.819,88.132l1.202-13.454h-6.306v14.868L35.819,88.132z"/>
		<path fill="#EBEBEB" d="M26.221,80.519l0.173,1.93h4.322v-1.93H26.221z M30.715,76.61h-4.842l0.174,1.93h4.668V76.61z
			 M30.715,87.543v-2.01l-0.008,0.002l-2.151-0.58l-0.138-1.54H26.48l0.27,3.032l3.956,1.098L30.715,87.543z"/>
		<path fill="#FFFFFF" d="M33.086,82.449l-0.224,2.504l-2.153,0.581v2.011l3.958-1.098l0.029-0.326l0.454-5.085l0.047-0.517
			l0.349-3.909h-4.837v1.93h2.721l-0.176,1.979h-2.545v1.93H33.086z"/>
	</g>
</g>
<g class="sprite" id="html5-icon">
	<path fill="#E44D26" d="M23.948,1.361c0.67-0.427,1.622-0.699,2.433-0.87C13.466,3.028,1.19,15.104,1.002,29.482
		c-0.247,19.181,18.085,33.404,22.544,36.58C-11.254,20.676,23.948,1.361,23.948,1.361z"/>
	<path fill="#E44D26" d="M25.955,66.239l3.182,0.021c-12.035-45.176,0.881-65.94,0.881-65.94c0.257-0.13,0.502-0.23,0.745-0.307
		c-1.188,0.026-2.382,0.14-3.571,0.336c0.456-0.071,0.765-0.099,0.765-0.099C3.971,19.18,24.142,62.48,25.955,66.239z
		 M33.594,66.302l3.175,0.023c2.047-3.805,23.929-45.996,0.486-65.527c0,0-0.01-0.045,0.219-0.021
		c-1.242-0.307-2.505-0.524-3.778-0.65c0.028,0.017,0.06,0.028,0.06,0.028C43.792,19.911,34.165,63.755,33.594,66.302z"/>
	<path fill="#E44D26" d="M39.307,66.061C44,62.5,61.399,48.143,61.964,30.295C62.374,17.43,52.336,6.134,40.907,1.841
		C44.908,4.468,72.555,24.82,39.307,66.061L39.307,66.061z"/>
	<path fill="#F1F1F1" d="M25.955,66.239c-1.813-3.758-21.984-47.059,2-65.988c0,0-0.309,0.025-0.765,0.097
		c-0.271,0.046-0.54,0.095-0.812,0.146c-0.811,0.17-1.763,0.442-2.433,0.87c0,0-35.201,19.313-0.399,64.701
		c0.08,0.057,0.149,0.105,0.219,0.152L25.955,66.239z M37.255,0.799c23.44,19.531,1.561,61.722-0.486,65.527l2.095,0.02l-0.031,0.07
		c0.141-0.102,0.299-0.225,0.476-0.354c33.249-41.241,5.604-61.593,1.604-64.22c-1.123-0.423-2.271-0.777-3.436-1.063
		C37.246,0.755,37.255,0.799,37.255,0.799z"/>
	<path fill="#F1F1F1" d="M29.136,66.262l4.457,0.041c0.571-2.549,10.199-46.393,0.158-66.146l-0.059-0.028
		C32.999,0.057,32.304,0.015,31.607,0c-0.282-0.002-0.566,0.008-0.85,0.014c-0.242,0.076-0.49,0.178-0.746,0.308
		C30.017,0.319,17.101,21.085,29.136,66.262z"/>
	<path fill="#03266D" d="M25.108,76.316l-0.803-8.203l0.294-0.032l0.223,2.293l1.019-1.953l0.259,0.139l-1.227,2.351l0.526,5.375
		L25.108,76.316z M30.933,76.378l0.104-5.306l-1.819-2.418l0.232-0.18l1.597,2.117l0.059-3.045l0.293,0.002l-0.059,2.992
		l1.441-2.062l0.241,0.172l-1.692,2.42l-0.104,5.314L30.933,76.378z M37.033,76.35l0.615-5.213l-1.434-2.584l0.255-0.146
		l1.238,2.231l0.277-2.354l0.293,0.036l-0.952,8.066L37.033,76.35z"/>
	<path fill="#E44D26" d="M38.159,68.826l-13.786-0.185l-3.442-4.508l20.561,0.277L38.159,68.826z"/>
	<path fill="#F16529" d="M23.952,68.089l-0.494-0.645l15.585,0.209l-0.478,0.631L23.952,68.089z M21.914,65.421l-0.495-0.646
		l19.599,0.262l-0.479,0.635L21.914,65.421z"/>
	<g>
		<path fill="#E44D26" d="M24.071,93.896l-1.67-19.053h18.346l-1.67,19.049l-7.513,2.117L24.071,93.896z"/>
		<path fill="#F16529" d="M31.575,94.393l6.071-1.715l1.428-16.275h-7.499V94.393z"/>
		<path fill="#EBEBEB" d="M31.575,83.466h-3.04l-0.21-2.393h3.249v-2.336h-5.759l0.055,0.629l0.563,6.438h5.142V83.466
			L31.575,83.466z M31.575,89.537l-0.01,0.002l-2.562-0.701l-0.162-1.863h-2.306l0.322,3.668l4.705,1.328l0.01-0.002L31.575,89.537z
			"/>
		<path fill="#FFFFFF" d="M31.566,83.466v2.338h2.828l-0.267,3.029l-2.562,0.703v2.43l4.71-1.324l0.033-0.396l0.54-6.152
			l0.058-0.627L31.566,83.466L31.566,83.466z M31.566,78.739v2.334h5.548l0.046-0.523l0.104-1.186l0.057-0.627L31.566,78.739z"/>
	</g>
</g>
<g class="sprite" id="ionic-icon">

		<linearGradient id="SVGID_2_" gradientUnits="userSpaceOnUse" x1="1977.1523" y1="-2978.8721" x2="2015.9653" y2="-2978.8721" gradientTransform="matrix(0.296 0 0 -0.296 -562.4954 -804.2035)">
		<stop  offset="0.092" style="stop-color:#6CC04A"/>
		<stop  offset="0.286" style="stop-color:#66B848"/>
		<stop  offset="0.597" style="stop-color:#54A044"/>
		<stop  offset="0.862" style="stop-color:#41873F"/>
	</linearGradient>
	<path fill="url(#SVGID_2_)" d="M30.203,77.528l-0.059,0.029h0.059V77.528z"/>
	<path fill="#4E8EF7" d="M23.947,1.361c0.67-0.427,1.622-0.699,2.433-0.87C13.466,3.028,1.19,15.104,1.002,29.482
		C0.754,48.663,19.086,62.887,23.545,66.062C-11.254,20.677,23.947,1.361,23.947,1.361z"/>
	<path fill="#4E8EF7" d="M25.955,66.237l3.182,0.021c-12.036-45.177,0.881-65.94,0.881-65.94c0.256-0.13,0.502-0.229,0.744-0.307
		c-1.188,0.025-2.381,0.14-3.571,0.336c0.456-0.071,0.764-0.1,0.764-0.1C3.97,19.18,24.141,62.479,25.955,66.237z M33.594,66.303
		l3.174,0.022c2.047-3.805,23.93-45.996,0.486-65.526c0,0-0.01-0.046,0.219-0.021c-1.242-0.308-2.504-0.524-3.777-0.65
		c0.019,0.012,0.039,0.021,0.059,0.028C43.792,19.909,34.164,63.756,33.594,66.303z"/>
	<path fill="#4E8EF7" d="M39.307,66.06C44,62.498,61.398,48.142,61.964,30.294c0.408-12.865-9.629-24.16-21.059-28.453
		C44.908,4.469,72.555,24.82,39.307,66.06z"/>
	<path fill="#F1F1F1" d="M25.955,66.237c-1.813-3.758-21.984-47.059,2-65.988c0,0-0.309,0.025-0.765,0.098
		c-0.271,0.046-0.54,0.095-0.812,0.146c-0.811,0.17-1.763,0.442-2.433,0.87c0,0-35.201,19.313-0.399,64.701
		c0.08,0.057,0.149,0.104,0.219,0.152L25.955,66.237z M37.255,0.799c23.439,19.53,1.56,61.722-0.486,65.526l2.094,0.021
		l-0.031,0.069c0.141-0.102,0.299-0.225,0.477-0.354c33.248-41.241,5.604-61.593,1.604-64.22c-1.123-0.423-2.271-0.778-3.436-1.063
		C37.246,0.755,37.255,0.799,37.255,0.799z"/>
	<path fill="#F1F1F1" d="M29.135,66.262l4.457,0.041c0.572-2.55,10.199-46.394,0.158-66.146L33.69,0.128
		C32.998,0.057,32.303,0.015,31.606,0c-0.281-0.002-0.566,0.009-0.85,0.015c-0.242,0.076-0.49,0.178-0.746,0.308
		C30.016,0.319,17.1,21.084,29.135,66.262z"/>
	<path fill="#03266D" d="M25.107,76.315l-0.803-8.203l0.294-0.031l0.224,2.293l1.018-1.952L26.1,68.56l-1.226,2.352l0.525,5.375
		L25.107,76.315z M30.932,76.378l0.105-5.307l-1.82-2.418l0.232-0.18l1.598,2.118l0.058-3.045l0.293,0.002l-0.058,2.991l1.441-2.063
		l0.24,0.172l-1.691,2.42l-0.105,5.315L30.932,76.378z M37.033,76.349l0.613-5.212l-1.433-2.584l0.256-0.147l1.238,2.231
		l0.275-2.354l0.293,0.035l-0.951,8.067L37.033,76.349z"/>
	<path fill="#3884F2" d="M38.158,68.825L24.373,68.64l-3.443-4.507l20.562,0.276L38.158,68.825z"/>
	<path fill="#03266D" d="M23.952,68.09l-0.494-0.646l15.585,0.209l-0.479,0.631L23.952,68.09z M21.914,65.422l-0.496-0.647
		l19.599,0.262l-0.478,0.636L21.914,65.422z"/>
	<circle fill="#4E8EF7" cx="31.12" cy="84.158" r="10.325"/>
	<circle fill="#FFFFFF" cx="31.265" cy="84.231" r="3.114"/>
	<path fill="#FFFFFF" d="M37.589,78.946c0-0.565-0.474-1.087-1.087-1.087c-0.265-0.007-0.521,0.095-0.708,0.283
		c-1.322-0.985-2.929-1.516-4.578-1.51c-4.2,0-7.598,3.397-7.598,7.599s3.398,7.599,7.598,7.599c4.201,0,7.6-3.397,7.6-7.599
		c-0.002-1.647-0.531-3.252-1.51-4.577C37.494,79.467,37.596,79.211,37.589,78.946z M36.633,80.189
		c0.815,1.116,1.332,2.492,1.332,3.995c0.011,3.69-2.973,6.691-6.664,6.702c-0.013,0-0.025,0-0.037,0
		c-3.695,0-6.701-3.009-6.701-6.702c0.005-3.699,3.002-6.696,6.701-6.701c1.504,0,2.879,0.517,3.995,1.332"/>
	<circle fill="#FFFFFF" cx="36.349" cy="79.156" r="1.589"/>
</g>
<g class="sprite" id="jquery-icon">
	<path fill="#21609B" d="M19.291,1.085c0.534-0.34,1.292-0.557,1.938-0.693C10.936,2.414,1.152,12.039,1.002,23.5
		c-0.197,15.289,14.416,26.626,17.97,29.157C-8.768,16.481,19.291,1.085,19.291,1.085z"/>
	<path fill="#21609B" d="M20.891,52.797l2.536,0.018c-9.593-36.01,0.702-52.561,0.702-52.561c0.191-0.098,0.39-0.179,0.594-0.245
		c-0.947,0.021-1.898,0.111-2.846,0.268c0.363-0.057,0.609-0.079,0.609-0.079C3.367,15.288,19.445,49.802,20.891,52.797z
		 M26.979,52.848l2.53,0.021c1.632-3.033,19.074-36.663,0.388-52.231c0,0-0.008-0.035,0.174-0.016
		c-0.99-0.245-1.996-0.418-3.011-0.519c0.022,0.013,0.047,0.023,0.047,0.023C35.109,15.87,27.433,50.818,26.979,52.848z"/>
	<path fill="#21609B" d="M31.533,52.655c3.741-2.838,17.609-14.282,18.061-28.508C49.92,13.891,41.918,4.889,32.809,1.466
		C35.999,3.562,58.035,19.784,31.533,52.655z"/>
	<path fill="#F1F1F1" d="M20.891,52.797c-1.447-2.995-17.524-37.51,1.594-52.598c0,0-0.247,0.02-0.611,0.077
		c-0.216,0.037-0.429,0.076-0.646,0.117c-0.646,0.136-1.406,0.353-1.939,0.693c0,0-28.058,15.395-0.318,51.572l0.174,0.122
		L20.891,52.797L20.891,52.797z M29.899,0.636c18.684,15.568,1.243,49.198-0.388,52.231l1.669,0.016l-0.025,0.056
		c0.112-0.08,0.237-0.179,0.379-0.281c26.503-32.872,4.468-49.095,1.279-51.189c-0.895-0.337-1.809-0.62-2.738-0.848
		C29.89,0.602,29.899,0.636,29.899,0.636z"/>
	<path fill="#F1F1F1" d="M23.426,52.816l3.553,0.032c0.455-2.031,8.13-36.979,0.126-52.723c0,0-0.023-0.01-0.047-0.023
		C26.506,0.045,25.952,0.011,25.397,0c-0.225-0.001-0.451,0.006-0.677,0.01c-0.205,0.066-0.404,0.148-0.595,0.246
		C24.127,0.254,13.832,16.807,23.426,52.816z"/>
	<path fill="#03266D" d="M20.216,60.83l-0.64-6.539l0.235-0.024l0.178,1.826l0.812-1.555l0.205,0.112l-0.977,1.872l0.419,4.285
		L20.216,60.83z M24.858,60.879l0.084-4.229l-1.451-1.927l0.185-0.144l1.274,1.688l0.046-2.427l0.234,0.001l-0.047,2.386
		l1.149-1.645l0.191,0.137l-1.348,1.93l-0.084,4.235L24.858,60.879z M29.722,60.856l0.489-4.155l-1.144-2.058l0.205-0.118
		l0.987,1.776l0.219-1.873l0.234,0.028l-0.759,6.428L29.722,60.856z"/>
	<path fill="#488AB7" d="M30.618,54.859L19.63,54.713l-2.744-3.594l16.389,0.221L30.618,54.859z"/>
	<path fill="#21609B" d="M19.294,54.273L18.9,53.76l12.423,0.166l-0.381,0.503L19.294,54.273z M17.67,52.147l-0.395-0.516
		l15.623,0.208l-0.381,0.506L17.67,52.147z"/>
	<circle fill="#21609B" cx="25.086" cy="69.204" r="9.883"/>
	<g>
		<path fill="#FFFFFF" d="M30.495,72.28l-0.08,0.156c-0.819,1.647-2.324,2.626-4.426,2.703c-0.977,0-1.956-0.227-2.554-0.527
			c-1.326-0.603-2.411-1.634-3.079-2.928c-0.9-1.728-1.051-4.053,0.827-5.856l-0.226,0.37l-0.075,0.152
			c-1.353,4.129,2.78,7.664,6.683,7.284C28.538,73.558,29.74,73.031,30.495,72.28"/>
		<path fill="#FFFFFF" d="M28.086,70.553c0.979,0,2.031-0.452,2.633-1.122c-0.527,1.35-2.106,2.249-4.208,1.956
			c-1.729-0.233-3.38-2.036-3.607-3.76c-0.151-1.28,0.301-2.031,1.053-3.006c-0.226,0.45-0.376,0.824-0.376,1.123
			C23.43,68.6,25.91,70.553,28.086,70.553"/>
		<path fill="#FFFFFF" d="M30.639,67.1c-0.151,0.372-1.048,1.052-1.428,1.126c-1.573,0.3-2.557-0.375-3.079-1.276
			c-0.074-0.152-0.225-0.45-0.225-0.526c-0.226-0.679-0.074-1.726,0.525-2.253c-0.154,0.527-0.225,1.128-0.154,1.5
			c0.08,0.229,0.228,0.677,0.374,0.904c0.302,0.446,0.526,0.597,0.98,0.818c0.15,0.075,0.373,0.227,0.448,0.227
			C28.538,67.701,29.363,68.073,30.639,67.1"/>
	</g>
</g>
<g class="sprite" id="js-icon">
	<path fill="#FFDA3E" d="M21.838,1.237c0.608-0.387,1.475-0.635,2.209-0.79C12.32,2.75,1.172,13.717,1.002,26.775
		c-0.226,17.42,16.423,30.336,20.475,33.22C-10.129,18.777,21.838,1.237,21.838,1.237z"/>
	<path fill="#FFDA3E" d="M23.664,60.154l2.89,0.021C15.622,19.148,27.353,0.291,27.353,0.291c0.232-0.118,0.457-0.209,0.676-0.279
		c-1.086,0.025-2.169,0.127-3.242,0.305c0.414-0.065,0.693-0.089,0.693-0.089C3.697,17.419,22.015,56.742,23.664,60.154z
		 M30.601,60.212l2.881,0.022c1.86-3.457,21.732-41.771,0.443-59.509c0,0-0.009-0.04,0.198-0.019
		c-1.129-0.279-2.276-0.477-3.433-0.591c0.026,0.015,0.055,0.026,0.055,0.026C39.861,18.082,31.116,57.9,30.601,60.212z"/>
	<path fill="#FFDA3E" d="M35.787,59.992C40.05,56.76,55.85,43.721,56.364,27.513C56.734,15.827,47.619,5.571,37.24,1.672
		C40.875,4.059,65.982,22.541,35.787,59.992z"/>
	<path fill="#FFFFFF" d="M23.664,60.154c-1.649-3.412-19.968-42.736,1.815-59.926c0,0-0.28,0.023-0.696,0.087
		c-0.246,0.042-0.488,0.086-0.735,0.133c-0.734,0.155-1.602,0.402-2.21,0.79c0,0-31.967,17.539-0.36,58.758
		c0.071,0.051,0.133,0.096,0.197,0.139L23.664,60.154z M33.927,0.725c21.287,17.738,1.415,56.052-0.441,59.509l1.902,0.018
		l-0.029,0.063c0.127-0.092,0.27-0.203,0.432-0.319c30.195-37.453,5.09-55.937,1.458-58.323c-1.02-0.383-2.062-0.706-3.12-0.966
		C33.916,0.686,33.927,0.725,33.927,0.725z"/>
	<path fill="#FFFFFF" d="M26.549,60.175l4.049,0.037c0.519-2.313,9.264-42.131,0.145-60.07L30.69,0.116
		C30.061,0.051,29.428,0.012,28.794,0c-0.256-0.001-0.513,0.007-0.771,0.012c-0.233,0.075-0.46,0.168-0.678,0.28
		C27.351,0.29,15.621,19.149,26.549,60.175z"/>
	<path fill="#D8BA3A" d="M22.894,69.307l-0.73-7.449l0.269-0.03l0.202,2.082l0.927-1.771l0.232,0.128l-1.113,2.133l0.476,4.88
		L22.894,69.307z M28.185,69.363l0.093-4.82l-1.652-2.195l0.21-0.162l1.451,1.922l0.053-2.766l0.266,0.002l-0.052,2.719l1.308-1.875
		l0.217,0.156l-1.535,2.198l-0.096,4.825L28.185,69.363z M33.726,69.335l0.554-4.731l-1.301-2.347l0.234-0.134l1.123,2.024
		l0.25-2.135l0.267,0.032l-0.866,7.323L33.726,69.335z"/>
	<path fill="#FFDA3E" d="M34.746,62.504l-12.518-0.167L19.1,58.242l18.672,0.252L34.746,62.504z"/>
	<path fill="#D8BA3A" d="M21.845,61.835l-0.449-0.584l14.153,0.19l-0.434,0.571L21.845,61.835z M19.993,59.413l-0.451-0.589
		l17.8,0.238l-0.434,0.576L19.993,59.413z"/>
	<g>
		<path fill="#D5BA33" d="M38.67,68.395l-1.928,21.591l-8.663,2.402l-8.641-2.399l-1.924-21.594H38.67z"/>
		<path fill="#FED93E" d="M35.093,88.61l1.647-18.45h-8.647v20.393L35.093,88.61z"/>
		<path fill="#FFFFFF" d="M29.313,72.435v9.515l3.76-0.717v2.103l-3.76,1.196v2.582l5.306-1.578l0.334-7.22l-3.76,0.478v-3.777
			h3.969l0.209-2.582H29.313z M24.537,72.255h1.967v15.039l-6.127-1.763v-2.645l4.023,1.028L24.537,72.255z"/>
	</g>
</g>
<g class="sprite" id="laravel-icon">
	<path fill="#F35045" d="M28.61,1.636c0.806-0.513,1.952-0.841,2.927-1.047C15.998,3.641,1.228,18.172,1.003,35.473
		c-0.3,23.082,21.761,40.195,27.127,44.02C-13.748,24.877,28.61,1.636,28.61,1.636z"/>
	<path fill="#F35045" d="M31.027,79.7l3.829,0.024C20.371,25.365,35.914,0.381,35.914,0.381c0.308-0.156,0.605-0.276,0.895-0.369
		c-1.44,0.034-2.875,0.169-4.296,0.404c0.548-0.086,0.918-0.119,0.918-0.119C4.57,23.077,28.842,75.18,31.027,79.7z M40.216,79.779
		l3.818,0.028c2.467-4.577,28.795-55.346,0.588-78.849c0,0-0.011-0.053,0.264-0.025c-1.495-0.369-3.015-0.631-4.547-0.782
		c0.033,0.02,0.07,0.034,0.07,0.034C52.49,23.956,40.901,76.715,40.216,79.779z"/>
	<path fill="#F35045" d="M47.091,79.487c5.648-4.283,26.582-21.562,27.262-43.035C74.847,20.97,62.767,7.38,49.016,2.214
		C53.833,5.376,87.099,29.865,47.091,79.487z"/>
	<path fill="#FFFFFF" d="M31.027,79.7C28.842,75.179,4.57,23.075,33.432,0.299c0,0-0.37,0.031-0.921,0.116
		c-0.326,0.056-0.651,0.114-0.975,0.177c-0.975,0.205-2.122,0.533-2.928,1.047c0,0-42.356,23.239-0.479,77.854
		c0.096,0.066,0.177,0.127,0.263,0.185L31.027,79.7z M44.624,0.959c28.205,23.503,1.877,74.271-0.584,78.849l2.521,0.021
		l-0.038,0.087c0.168-0.122,0.355-0.271,0.57-0.425c40.01-49.625,6.744-74.116,1.932-77.277c-1.351-0.509-2.731-0.936-4.133-1.28
		C44.612,0.906,44.624,0.959,44.624,0.959z"/>
	<path fill="#FFFFFF" d="M34.851,79.73l5.363,0.049c0.687-3.065,12.274-55.824,0.191-79.591c0,0-0.036-0.017-0.07-0.035
		c-0.838-0.08-1.68-0.145-2.51-0.153c-0.339-0.002-0.681,0.009-1.02,0.016c-0.31,0.1-0.611,0.224-0.9,0.371
		C35.912,0.383,20.37,25.37,34.851,79.73z"/>
	<path fill="#F35045" d="M30.007,91.829l-0.967-9.871l0.356-0.038l0.268,2.76l1.226-2.349l0.31,0.168l-1.475,2.826l0.631,6.469
		L30.007,91.829z M37.017,91.904l0.124-6.387l-2.189-2.908l0.28-0.216l1.922,2.548l0.07-3.664l0.352,0.002l-0.07,3.602l1.734-2.484
		l0.287,0.206l-2.034,2.915l-0.127,6.392L37.017,91.904z M44.358,91.868l0.735-6.27l-1.723-3.109l0.309-0.177l1.49,2.679l0.33-2.828
		l0.352,0.044l-1.146,9.702L44.358,91.868z"/>
	<path fill="#F2605C" d="M45.712,82.816l-16.589-0.222l-4.143-5.427l24.74,0.333L45.712,82.816z"/>
	<path fill="#F35045" d="M28.616,81.93l-0.595-0.771l18.754,0.25l-0.574,0.759L28.616,81.93z M26.164,78.721l-0.597-0.777
		l23.584,0.313l-0.574,0.765L26.164,78.721z"/>
	<circle fill="#F35045" cx="37.683" cy="108.638" r="18.465"/>
	<path fill="none" stroke="#FFFFFF" stroke-miterlimit="10" d="M25.071,101.431c0,0-0.561-0.912,0.351-1.123l4.537-0.442
		c0,0,0.749,0.047,1.076,0.783l9.413,16.438c0,0,0.339,0.597,1.508,0.176l7.506-2.76c0,0,0.562-0.351,0-1.263l-5.822-7.669
		c0,0-0.444-0.631,0.632-0.701l2.806-0.539c0,0,0.444-0.162,1.192,0.842l2.198,3.064l-19.27,4.815l-0.514,0.07L25.071,101.431z"/>
</g>
<g class="sprite" id="magento-icon">
	<path fill="#F26322" d="M19.291,1.085c0.533-0.34,1.291-0.557,1.938-0.693C10.936,2.414,1.152,12.039,1.002,23.5
		C0.805,38.789,15.418,50.126,18.973,52.658C-8.768,16.482,19.291,1.085,19.291,1.085z"/>
	<path fill="#F26322" d="M20.891,52.797l2.537,0.019c-9.594-36.011,0.701-52.562,0.701-52.562c0.205-0.103,0.4-0.184,0.594-0.245
		c-0.947,0.021-1.898,0.111-2.846,0.268c0.363-0.057,0.609-0.079,0.609-0.079C3.367,15.289,19.445,49.802,20.891,52.797z
		 M26.979,52.848l2.531,0.021c1.631-3.033,19.072-36.663,0.387-52.231c0,0-0.008-0.035,0.174-0.016
		c-0.989-0.245-1.996-0.418-3.01-0.519c0.015,0.009,0.031,0.017,0.047,0.023C35.109,15.871,27.434,50.818,26.979,52.848z"/>
	<path fill="#F26322" d="M31.533,52.656c3.74-2.838,17.609-14.282,18.061-28.508C49.92,13.892,41.918,4.889,32.809,1.466
		C35.998,3.562,58.035,19.785,31.533,52.656z"/>
	<path fill="#FFFFFF" d="M20.891,52.797c-1.447-2.995-17.524-37.51,1.594-52.598c0,0-0.246,0.02-0.611,0.077
		c-0.215,0.037-0.428,0.076-0.645,0.117c-0.646,0.136-1.406,0.353-1.939,0.693c0,0-28.058,15.396-0.318,51.571l0.174,0.123
		L20.891,52.797z M29.899,0.636c18.684,15.568,1.244,49.198-0.387,52.23l1.668,0.017l-0.025,0.056
		c0.113-0.08,0.238-0.179,0.379-0.281C58.038,19.787,36.003,3.564,32.813,1.47c-0.895-0.337-1.809-0.621-2.738-0.848
		C29.891,0.602,29.899,0.636,29.899,0.636z"/>
	<path fill="#FFFFFF" d="M23.426,52.816l3.553,0.032c0.455-2.03,8.131-36.979,0.127-52.723c0,0-0.023-0.01-0.047-0.023
		C26.507,0.045,25.952,0.011,25.397,0c-0.225-0.001-0.451,0.006-0.676,0.01c-0.205,0.065-0.404,0.148-0.596,0.246
		C24.127,0.254,13.832,16.808,23.426,52.816z"/>
	<path fill="#DD5824" d="M20.217,60.831l-0.641-6.54l0.235-0.024l0.177,1.826l0.813-1.554l0.205,0.111l-0.977,1.873l0.418,4.285
		L20.217,60.831z M24.857,60.879l0.084-4.229l-1.451-1.927l0.186-0.143l1.273,1.687l0.047-2.427l0.235,0.001l-0.047,2.387
		l1.148-1.646l0.192,0.137l-1.348,1.931l-0.084,4.234L24.857,60.879z M29.723,60.857l0.488-4.156l-1.145-2.057l0.206-0.119
		l0.988,1.776l0.219-1.873l0.232,0.028l-0.758,6.428L29.723,60.857z"/>
	<path fill="#F26322" d="M30.617,54.859l-10.986-0.146l-2.744-3.593l16.388,0.22L30.617,54.859z"/>
	<path fill="#DD5824" d="M19.293,54.273L18.9,53.76l12.422,0.166l-0.381,0.503L19.293,54.273z M17.67,52.148l-0.395-0.517
		l15.623,0.208l-0.381,0.506L17.67,52.148z"/>
	<circle fill="#F26322" cx="25.081" cy="71.647" r="12.873"/>
	<g>
		<path fill="#FFFFFF" d="M25.357,62.78l-8.02,4.629v9.243l2.291,1.323l-0.017-9.247l5.728-3.308l5.73,3.308v9.243l2.289-1.319V67.4
			L25.357,62.78z"/>
		<path fill="#FFFFFF" d="M26.493,77.973l-1.144,0.664l-1.15-0.657v-9.252l-2.286,1.321l0.004,9.246l3.43,1.983l3.434-1.983v-9.246
			l-2.288-1.321V77.973z"/>
	</g>
</g>
<g class="sprite" id="microsoft-icon">
	<path fill="#00ADEF" d="M20.595,1.142c0.665-0.38,1.334-0.666,2.092-0.761C11.655,2.568,1.095,12.934,1.002,25.206
		C0.812,41.567,16.504,53.739,20.31,56.5C-9.461,17.691,20.595,1.142,20.595,1.142z"/>
	<path fill="#00ADEF" d="M22.4,56.688h2.665C14.698,18.073,25.73,0.287,25.73,0.287C25.946,0.175,26.169,0.079,26.398,0
		c-1.048,0-2.093,0.097-3.14,0.287c0.382-0.096,0.667-0.096,0.667-0.096C3.569,16.457,20.786,53.455,22.4,56.688z M28.869,56.688
		h2.668c1.707-3.327,20.444-39.28,0.376-56.022h0.191c-1.046-0.285-2.188-0.379-3.235-0.475
		C37.618,17.025,29.346,54.502,28.869,56.688z"/>
	<path fill="#00ADEF" d="M33.813,56.5c3.999-2.949,18.936-15.316,19.406-30.532c0.282-11.035-8.277-20.639-17.976-24.352
		C38.571,3.806,62.252,21.306,33.813,56.5z"/>
	<path fill="#FFFFFF" d="M22.4,56.688c-1.614-3.233-18.833-40.231,1.714-56.497c0,0-0.285,0-0.664,0.096
		c-0.194,0-0.386,0.094-0.765,0.094c-0.745,0.094-1.46,0.354-2.091,0.761c0,0-30.151,16.549-0.285,55.357
		c0.097,0,0.097,0.094,0.189,0.094L22.4,56.688z M32.101,0.762c20.073,16.738,1.33,52.788-0.376,56.021h1.706v0.094
		c0.097-0.094,0.193-0.188,0.382-0.283c28.344-35.288,4.754-52.599,1.328-54.882c-0.947-0.38-1.993-0.666-2.851-0.954
		C32.101,0.666,32.101,0.762,32.101,0.762z"/>
	<path fill="#FFFFFF" d="M25.065,56.688h3.805c0.478-2.187,8.652-39.663,0.095-56.591C28.395,0,27.818,0,27.256,0h-0.763
		c-0.191,0.097-0.378,0.097-0.665,0.287C25.923,0.287,14.792,18.073,25.065,56.688z"/>
	<path fill="#03266D" d="M21.643,68.461L20.882,58.21h0.377l0.19,2.001l0.858-1.717l0.19,0.094l-1.049,1.998l0.382,7.875H21.643z
		 M26.59,67.797l0.092-3.213l0.1,3.213l0.092-7.021l1.423-2.089l-0.192-0.099l-1.233,1.715v-2.567h-0.193v2.567l-1.33-1.901
		l-0.188,0.092l1.52,2.092L26.59,67.797z M31.818,65.25l0.57-4.474l-1.236-2.188l0.188-0.094l1.049,1.904l0.281-1.996h0.195
		l-0.765,6.943L31.818,65.25z"/>
	<path fill="#00ADEF" d="M32.766,58.874l-11.697-0.092l-3.041-3.995l17.688,0.189L32.766,58.874z"/>
	<path fill="#05A1D1" d="M20.595,58.21l-0.381-0.474l13.32,0.095L33.146,58.3L20.595,58.21z M18.975,55.927l-0.38-0.479
		l16.743,0.191l-0.475,0.478L18.975,55.927z"/>
	<path fill="#00ADEF" d="M15.91,67.463l8.852-1.193v8.563l-8.852,0.073V67.463z M24.762,75.803v8.561l-8.852-1.192v-7.369H24.762z
		 M25.885,66.045l11.764-1.704v10.345l-11.764,0.076V66.045z M37.646,75.875v10.28l-11.763-1.646v-8.631h11.763V75.875z"/>
</g>
<g class="sprite" id="nodjs-icon">
	<path fill="#458A46" d="M25.711,1.513c0.754-0.434,1.727-0.758,2.59-0.973C14.489,3.237,1.218,16.293,1.002,31.83
		C0.785,52.548,20.53,67.867,25.279,71.32C-12.269,22.336,25.711,1.513,25.711,1.513z"/>
	<path fill="#458A46" d="M27.977,71.428h3.453C18.373,22.766,32.293,0.324,32.293,0.324c0.26-0.088,0.512-0.196,0.755-0.324
		c-1.294,0-2.59,0.109-3.884,0.324h0.971C4.238,20.716,25.926,67.437,27.977,71.428z M36.174,71.534h3.453
		c2.158-4.097,25.789-49.631,0.542-70.669h0.214c-1.347-0.321-2.716-0.538-4.097-0.649h0.106
		C47.183,21.472,36.824,68.838,36.174,71.534z"/>
	<path fill="#458A46" d="M42.325,71.32c5.07-3.883,23.844-19.42,24.494-38.627c0.433-13.92-10.359-26.11-22.767-30.751
		C48.37,4.856,78.257,26.758,42.325,71.32z"/>
	<path fill="#F1F1F1" d="M27.977,71.428c-1.942-4.104-23.738-50.819,2.157-71.213c0,0-0.325,0-0.864,0.109
		c-0.322,0-0.54,0.107-0.863,0.107c-0.862,0.217-1.942,0.433-2.589,0.972c0,0-37.98,20.823-0.432,69.81
		c0.108,0.106,0.108,0.106,0.215,0.215H27.977z M40.169,0.864c25.247,21.039,1.728,66.573-0.542,70.669h2.27v0.108
		c0.106-0.108,0.322-0.214,0.536-0.429c35.824-44.455,6.045-66.466,1.73-69.271c-1.208-0.442-2.433-0.838-3.672-1.187
		C40.061,0.864,40.169,0.864,40.169,0.864z"/>
	<path fill="#F1F1F1" d="M31.321,71.534h4.853c0.65-2.695,11.009-50.062,0.218-71.318h-0.106c-0.759-0.106-1.512-0.215-2.267-0.215
		h-0.863c-0.217,0.109-0.54,0.215-0.757,0.324C32.292,0.325,18.373,22.766,31.321,71.534z"/>
	<path fill="#154715" d="M27.004,82.326l-0.861-8.849h0.322l0.217,2.486l1.079-2.161l0.324,0.216L26.789,76.5l0.54,5.826H27.004z
		 M33.372,78.981h0.324v-2.264l1.832-2.591l-0.214-0.215l-1.617,2.156l0.106-3.131l-0.322-0.107l-0.108,3.346l-1.728-2.264
		l-0.215,0.215l1.942,2.591V78.981z M39.846,82.326l0.645-5.609l-1.512-2.699l0.328-0.216l1.293,2.373l0.324-2.479h0.324
		l-1.079,8.737L39.846,82.326z"/>
	<path fill="#458A46" d="M41.136,74.232l-14.887-0.214l-3.774-4.854L44.7,69.487L41.136,74.232z"/>
	<path fill="#154715" d="M25.818,73.477l-0.539-0.647l16.723,0.218l-0.536,0.648L25.818,73.477z M23.553,70.565l-0.54-0.646
		l21.149,0.213l-0.541,0.648L23.553,70.565z"/>
	<g>

			<linearGradient id="SVGID_3_" gradientUnits="userSpaceOnUse" x1="1995.4932" y1="-2968.9717" x2="2034.2024" y2="-2968.9717" gradientTransform="matrix(0.296 0 0 -0.296 -562.4954 -804.2035)">
			<stop  offset="0.092" style="stop-color:#6CC04A"/>
			<stop  offset="0.286" style="stop-color:#66B848"/>
			<stop  offset="0.597" style="stop-color:#54A044"/>
			<stop  offset="0.862" style="stop-color:#41873F"/>
		</linearGradient>
		<path fill="url(#SVGID_3_)" d="M32.833,74.559l-0.216,0.107h0.216V74.559z"/>
	</g>
	<circle fill="#699F63" cx="33.48" cy="92.367" r="13.521"/>
	<g>
		<path fill="#FFFFFF" d="M33.602,101.319c-0.243,0-0.485-0.081-0.727-0.161l-2.175-1.29c-0.321-0.161-0.16-0.244-0.082-0.326
			c0.406-0.159,0.565-0.159,0.968-0.479h0.161l1.694,0.965h0.243l6.521-3.785c0.083,0,0.083-0.082,0.083-0.159v-7.576
			c0-0.077,0-0.157-0.083-0.157l-6.521-3.788h-0.243l-6.529,3.868c-0.079,0-0.079,0.077-0.079,0.154v7.576
			c0,0.082,0.079,0.161,0.079,0.161l1.773,1.046c0.968,0.483,1.609-0.08,1.609-0.643v-7.491c0-0.08,0.084-0.165,0.167-0.165h0.801
			c0.081,0,0.164,0.085,0.164,0.165v7.491c0,1.287-0.726,2.017-1.933,2.017c-0.405,0-0.648,0-1.53-0.407l-1.692-0.967
			c-0.406-0.239-0.73-0.723-0.73-1.208v-7.576c0-0.476,0.247-0.959,0.73-1.201l6.521-3.788c0.426-0.242,0.949-0.242,1.375,0
			l6.522,3.788c0.405,0.242,0.73,0.726,0.73,1.201v7.576c0,0.485-0.247,0.969-0.73,1.208l-6.522,3.789
			C34.084,101.319,33.843,101.319,33.602,101.319L33.602,101.319z"/>
		<path fill="#FFFFFF" d="M35.617,96.16c-2.901,0-3.465-1.291-3.465-2.412c0-0.086,0.079-0.163,0.157-0.163h0.89
			c0.087,0.005,0.156,0.075,0.16,0.163c0.16,0.883,0.484,1.288,2.258,1.288c1.367,0,1.931-0.323,1.931-1.047
			c0-0.404-0.159-0.727-2.334-0.968c-1.772-0.163-2.904-0.563-2.904-2.017c0-1.288,1.132-2.092,2.982-2.092
			c2.098,0,3.145,0.719,3.304,2.336c0,0.077,0,0.077-0.082,0.164c0,0-0.077,0.077-0.155,0.077h-0.891
			c-0.078,0-0.159-0.077-0.159-0.164c-0.242-0.883-0.726-1.21-2.017-1.21c-1.53,0-1.689,0.563-1.689,0.889
			c0,0.485,0.241,0.644,2.256,0.892c2.014,0.235,2.979,0.642,2.979,2.093C38.919,95.276,37.708,96.16,35.617,96.16z"/>
	</g>
</g>
<g class="sprite" id="phonegap-icon">
	<path fill="#848484" d="M25.711,1.513c0.754-0.434,1.727-0.758,2.59-0.973C14.489,3.237,1.218,16.293,1.002,31.83
		C0.786,52.547,20.531,67.867,25.28,71.32C-12.269,22.336,25.711,1.513,25.711,1.513z"/>
	<path fill="#848484" d="M27.977,71.428h3.454C18.374,22.766,32.293,0.324,32.293,0.324c0.324-0.109,0.54-0.215,0.755-0.324
		c-1.295,0-2.59,0.109-3.884,0.324h0.971C4.238,20.716,25.926,67.437,27.977,71.428z M36.174,71.534h3.453
		c2.158-4.097,25.789-49.631,0.541-70.669h0.215c-1.348-0.321-2.718-0.538-4.098-0.649h0.106
		C47.182,21.472,36.825,68.838,36.174,71.534z"/>
	<path fill="#848484" d="M42.325,71.32c5.07-3.883,23.844-19.421,24.494-38.627c0.434-13.92-10.359-26.11-22.766-30.751
		C48.37,4.856,78.256,26.758,42.325,71.32z"/>
	<path fill="#F1F1F1" d="M27.977,71.428c-1.943-4.103-23.739-50.819,2.157-71.213c0,0-0.325,0-0.864,0.109
		c-0.322,0-0.54,0.107-0.863,0.107c-0.862,0.217-1.942,0.433-2.589,0.972c0,0-37.98,20.823-0.432,69.81
		c0.108,0.106,0.108,0.106,0.215,0.215H27.977z M40.168,0.864c25.248,21.039,1.729,66.573-0.541,70.669h2.27v0.108
		c0.105-0.108,0.322-0.214,0.535-0.429c35.824-44.455,6.045-66.466,1.73-69.271c-1.208-0.443-2.433-0.839-3.672-1.187
		C40.061,0.864,40.168,0.864,40.168,0.864z"/>
	<path fill="#F1F1F1" d="M31.321,71.534h4.854c0.65-2.695,11.008-50.062,0.218-71.318h-0.106c-0.758-0.106-1.512-0.215-2.267-0.215
		h-0.862C32.94,0.11,32.618,0.216,32.4,0.325C32.292,0.325,18.373,22.766,31.321,71.534z"/>
	<path fill="#3A3938" d="M27.004,85.519l-0.861-12.042h0.322l0.217,2.486l1.079-2.161l0.324,0.216L26.789,76.5l0.54,9.019H27.004z
		 M33.372,81.981h0.324v-5.264l1.832-2.591l-0.215-0.215l-1.617,2.156l0.105-3.131l-0.322-0.107l-0.107,3.346l-1.727-2.264
		l-0.215,0.215l1.941,2.591L33.372,81.981L33.372,81.981z M39.846,82.327l0.645-5.61l-1.512-2.699l0.328-0.216l1.293,2.373
		l0.324-2.479h0.324l-1.08,8.737L39.846,82.327z"/>
	<path fill="#848484" d="M41.135,74.232l-14.886-0.214l-3.774-4.853L44.7,69.487L41.135,74.232z"/>
	<path fill="#3A3938" d="M25.818,73.477L25.28,72.83l16.723,0.218l-0.535,0.648L25.818,73.477z M23.553,70.565l-0.54-0.647
		l21.149,0.213l-0.54,0.648L23.553,70.565z"/>
	<path d="M44.55,83.418c-0.095-1.742-1.654-2.108-1.654-2.108s-5.313-0.824-7.688-1.096c-2.382-0.279-2.201,2.009-2.201,2.009
		s0.551,16.578,0.551,18.593c0.088,2.475,2.381,2.014,2.381,2.014l8.063-1.371c1.463-0.274,1.559-2.11,1.559-2.11
		S44.637,85.247,44.55,83.418C44.453,81.585,44.637,85.247,44.55,83.418z M42.716,97.432l-5.956,0.639c0,0-1.737,0.275-1.737-1.833
		c0-1.555-0.368-10.529-0.368-10.529s-0.093-1.649,1.65-1.465c1.832,0.089,6.23,0.453,6.23,0.453s1.188,0.276,1.188,1.65
		c0.095,1.469,0.553,9.522,0.553,9.522S44.453,97.154,42.716,97.432z M28.06,95.052l-1.097,0.089c0,0-1.098,0.183-1.098-1.1
		c0-0.917-0.094-6.042-0.094-6.042s-0.089-0.918,1.098-0.826c0.278,0,0.732,0,1.191,0.09v-2.108c-0.642-0.09-1.191-0.09-1.647-0.182
		c-1.557-0.184-1.465,1.097-1.465,1.097s0.181,9.342,0.181,10.532c0,1.373,1.557,1.188,1.557,1.188l1.559-0.182
		C28.129,96.761,28.067,95.907,28.06,95.052z M32.457,86.531c0-0.088,0-0.182-0.095-0.363c-0.455,0-1.74-0.366-2.104,0.092
		c-0.272,0.271-0.182,0.822-0.182,1.098l0.913,0.088c0,0,0.731,0.188,0.825,0.923v5.584c0,0,0.089,0.731-1.008,0.917h-0.548v0.368
		c0,1.373,1.466,0.915,2.382,0.823c0.09-1.465-0.094-2.926-0.094-4.305C32.546,90.011,32.546,88.273,32.457,86.531
		C32.457,86.349,32.546,87.539,32.457,86.531z"/>
	<path d="M32.913,96.61l-1.556,0.184c0,0-1.467,0.185-1.557-1.557c0-1.285-0.183-8.521-0.183-8.521s-0.094-1.276,1.465-1.192
		c0.367,0,0.916,0.094,1.558,0.094c0-1.372-0.094-2.475-0.094-3.023c-0.826-0.09-1.557-0.188-2.105-0.188
		c-2.016-0.271-1.922,1.563-1.922,1.563s0.271,13.275,0.271,14.926c0.093,1.92,2.016,1.646,2.016,1.646l2.289-0.275
		C33.005,99.45,33.005,98.166,32.913,96.61z M36.209,84.793c-0.273,0-0.638,0-0.822,0.18c-0.183,0.28-0.183,0.55-0.183,0.828
		c0.821,0.087,1.375,0.087,1.375,0.087s1.004,0.188,1.096,1.285c0.09,1.194,0.369,7.691,0.369,7.691s0.09,1.103-1.284,1.285
		l-1.096,0.088c0.184,1.743,2.383,1.007,3.475,0.826c-0.088-2.562-0.451-10.441-0.544-12.362
		C37.675,84.882,36.942,84.793,36.209,84.793C36.209,84.793,36.76,84.793,36.209,84.793z"/>
</g>
<g class="sprite" id="wordpress-icon">
	<path fill="#1B69B1" d="M25.021,1.402c0.701-0.439,1.698-0.719,2.546-0.896C14.049,3.117,1.197,15.543,1.002,30.34
		c-0.259,19.738,18.933,34.379,23.6,37.645C-11.829,21.28,25.021,1.402,25.021,1.402z"/>
	<path fill="#1B69B1" d="M27.125,68.165l3.33,0.025C17.855,21.698,31.376,0.328,31.376,0.328c0.268-0.133,0.526-0.235,0.781-0.313
		c-1.254,0.028-2.504,0.143-3.742,0.344c0.479-0.074,0.801-0.101,0.801-0.101C4.109,19.74,25.227,64.299,27.125,68.165z
		 M35.121,68.231l3.323,0.026c2.142-3.918,25.05-47.336,0.511-67.435c0,0-0.01-0.046,0.229-0.024
		c-1.302-0.314-2.625-0.538-3.958-0.668l0.063,0.029C45.797,20.491,35.717,65.611,35.121,68.231z"/>
	<path fill="#1B69B1" d="M41.104,67.983c4.913-3.662,23.125-18.438,23.72-36.805C65.251,17.938,54.746,6.313,42.777,1.896
		C46.963,4.602,75.908,25.544,41.104,67.983z"/>
	<path fill="#F1F1F1" d="M27.125,68.165C25.228,64.299,4.109,19.74,29.218,0.26c0,0-0.324,0.025-0.801,0.1
		c-0.283,0.044-0.564,0.095-0.849,0.148c-0.849,0.176-1.845,0.456-2.546,0.896c0,0-36.85,19.878-0.418,66.583
		c0.083,0.06,0.156,0.11,0.229,0.161L27.125,68.165z M38.955,0.825c24.539,20.099,1.631,63.519-0.511,67.435l2.192,0.021
		l-0.031,0.07c0.146-0.104,0.313-0.229,0.498-0.367c34.805-42.438,5.861-63.381,1.674-66.085c-1.175-0.436-2.375-0.802-3.594-1.097
		C38.944,0.778,38.955,0.825,38.955,0.825z"/>
	<path fill="#F1F1F1" d="M30.455,68.188l4.666,0.043C35.718,65.61,45.798,20.49,35.287,0.16l-0.062-0.028
		C34.5,0.058,33.772,0.014,33.043,0c-0.297-0.002-0.594,0.01-0.887,0.015c-0.269,0.082-0.53,0.188-0.781,0.313
		C31.375,0.329,17.855,21.699,30.455,68.188z"/>
	<path fill="#03266D" d="M26.236,77.935l-0.839-7.839l0.309-0.032l0.233,2.359l1.065-2.009l0.272,0.145l-1.283,2.418l0.548,4.93
		L26.236,77.935z M32.334,75.588l0.109-2.445l-1.903-2.491l0.244-0.183l1.67,2.179l0.061-3.134l0.307,0.004l-0.061,3.078
		l1.509-2.123l0.251,0.175l-1.772,2.491l-0.108,2.457L32.334,75.588z M38.722,77.366l0.642-4.156l-1.501-2.662l0.267-0.15
		l1.297,2.295l0.289-2.422l0.306,0.038l-0.995,7.095L38.722,77.366z"/>
	<path fill="#1B69B1" d="M39.899,70.83l-14.432-0.189l-3.603-4.64l21.525,0.283L39.899,70.83z"/>
	<path fill="#03266D" d="M25.027,70.072l-0.517-0.665l16.316,0.215l-0.5,0.65L25.027,70.072z M22.894,67.326l-0.518-0.665
		l20.518,0.271l-0.502,0.652L22.894,67.326z"/>
	<g>
		<path fill="#1B69B1" d="M23.529,86.014c0,3.585,2.065,6.849,5.306,8.383l-4.473-12.229C23.813,83.375,23.529,84.687,23.529,86.014
			z M28.418,80.981v0.556c0,0.05-0.039,0.091-0.088,0.092h-1.074c-0.12,0-0.17,0.072-0.129,0.197l3.367,9.921l2.049-6.188
			l-1.361-3.728c-0.051-0.135-0.107-0.204-0.318-0.204h-0.941c-0.049-0.001-0.089-0.042-0.088-0.092v-0.001v-0.557
			c0-0.051,0.041-0.094,0.088-0.092c1.764,0.076,3.531,0.076,5.295,0c0.048-0.002,0.089,0.041,0.089,0.092v0.557
			c0.001,0.05-0.039,0.091-0.088,0.092c0,0-0.001,0-0.001,0H34.28c-0.187,0-0.245,0.086-0.194,0.237l3.315,9.766l1.218-3.703
			c1.471-4.479-1.26-4.955-1.191-7.183c0.033-1.102,0.841-1.583,1.65-1.561c-1.709-1.575-3.949-2.448-6.273-2.445
			c-3.145-0.002-6.075,1.591-7.784,4.23c1.054-0.012,2.185-0.021,3.312-0.082C28.377,80.887,28.418,80.932,28.418,80.981z"/>
		<path fill="#1B69B1" d="M32.804,75.228c-5.956,0-10.785,4.83-10.785,10.787c0,5.953,4.83,10.782,10.785,10.782
			c5.955,0,10.785-4.829,10.785-10.782C43.588,80.059,38.758,75.228,32.804,75.228z M32.804,96.156
			c-5.602,0-10.145-4.542-10.145-10.144c0-5.603,4.543-10.146,10.145-10.146c5.601,0,10.144,4.543,10.144,10.146
			C42.946,91.614,38.404,96.156,32.804,96.156z"/>
		<path fill="#1B69B1" d="M30.106,94.891c0.854,0.258,1.76,0.396,2.697,0.396c1.058,0.001,2.108-0.179,3.105-0.533L32.963,86.7
			L30.106,94.891z M40.959,81.598c0.052,1.381-0.364,3.094-0.813,4.36l-2.892,8.191c2.974-1.627,4.823-4.747,4.822-8.137
			C42.08,84.471,41.695,82.952,40.959,81.598z"/>
	</g>
</g>
<g class="sprite" id="cake1-icon">
	<path fill="#FFFFFF" d="M9.066,17.612c0.179,0.005,0.35-0.071,0.466-0.207c0.134-0.138,0.2-0.273,0.2-0.479s-0.066-0.347-0.2-0.481
		c-0.236-0.258-0.635-0.276-0.893-0.041c-0.014,0.013-0.027,0.026-0.04,0.041c-0.133,0.138-0.2,0.275-0.2,0.481
		s0.067,0.344,0.2,0.479C8.666,17.541,8.866,17.612,9.066,17.612z M17.066,17.612c0.2,0,0.334-0.068,0.467-0.207
		c0.121-0.131,0.191-0.301,0.199-0.479c0.007-0.182-0.066-0.357-0.199-0.481c-0.237-0.258-0.639-0.275-0.897-0.038
		c-0.013,0.012-0.026,0.025-0.038,0.038c-0.133,0.138-0.199,0.275-0.199,0.481s0.066,0.344,0.199,0.479
		C16.724,17.529,16.89,17.602,17.066,17.612z M25.134,17.612c0.179,0.005,0.35-0.071,0.466-0.207c0.121-0.131,0.192-0.301,0.2-0.479
		c0.006-0.182-0.067-0.357-0.2-0.481c-0.236-0.258-0.637-0.276-0.895-0.04c-0.014,0.013-0.027,0.026-0.04,0.04
		c-0.133,0.138-0.199,0.275-0.199,0.481s0.066,0.344,0.199,0.479C24.792,17.529,24.958,17.603,25.134,17.612z M12.467,18.504
		c-0.132,0.125-0.206,0.3-0.2,0.482c0,0.205,0.066,0.344,0.2,0.48c0.125,0.125,0.291,0.199,0.467,0.207
		c0.178,0.004,0.35-0.072,0.466-0.207c0.122-0.131,0.192-0.302,0.2-0.48c0.006-0.182-0.067-0.357-0.2-0.482
		C13.133,18.298,12.666,18.298,12.467,18.504z M20.467,18.504c-0.132,0.125-0.205,0.3-0.199,0.482c0,0.205,0.065,0.344,0.199,0.48
		c0.117,0.136,0.288,0.211,0.467,0.207c0.2,0,0.334-0.069,0.467-0.207c0.133-0.124,0.206-0.299,0.199-0.48
		c0.007-0.182-0.066-0.358-0.199-0.482C21.2,18.298,20.732,18.298,20.467,18.504z"/>
	<g>
		<path fill="#FFFFFF" d="M16.333,1.86h-6.267c-1.467,0-2.667,1.237-2.667,2.751v6.465H5.866c-1.467,0-2.667,1.237-2.667,2.752
			v7.359H1.666c-0.4,0-0.666,0.274-0.666,0.688v3.578c0,0.413,0.266,0.688,0.666,0.688h30.667c0.401,0,0.667-0.275,0.667-0.687
			v-3.508c0-0.414-0.266-0.688-0.667-0.688H30.8v-7.431c0-1.514-1.198-2.75-2.667-2.75H26.6V4.611c0-1.514-1.199-2.751-2.666-2.751
			h-6.267 M8.732,4.541c0-0.757,0.601-1.375,1.334-1.375H24c0.732,0,1.334,0.618,1.334,1.375v3.51C24.8,8.394,24,8.394,23.533,7.912
			l-2.067-2.133c-1.021-1.068-2.714-1.105-3.782-0.084C17.655,5.723,17.627,5.75,17.6,5.779l-2.064,2.133
			c-0.553,0.551-1.447,0.551-2,0L11.47,5.779c-0.734-0.757-1.801-0.963-2.734-0.688v-0.55H8.732z M8.732,6.605
			c0.534-0.412,1.334-0.344,1.801,0.139l2.066,2.131c0.533,0.551,1.2,0.826,1.934,0.826c0.734,0,1.4-0.275,1.933-0.826l2.067-2.131
			c0.533-0.551,1.4-0.551,2,0l2.066,2.131c0.501,0.533,1.202,0.833,1.934,0.826c0.267,0,0.533-0.068,0.801-0.138v1.444H8.732V6.605z
			 M4.532,13.829c0-0.756,0.601-1.377,1.334-1.377h22.267c0.733,0,1.334,0.621,1.334,1.377v2.063c-0.732-0.206-1.6,0-2.199,0.62
			L25.6,18.231c-0.353,0.386-0.952,0.413-1.338,0.06c-0.021-0.019-0.041-0.039-0.06-0.06l-1.602-1.72
			c-0.934-0.964-2.398-0.964-3.267,0l-1.666,1.72c-0.354,0.387-0.956,0.413-1.342,0.059c-0.021-0.019-0.04-0.039-0.059-0.059
			l-1.666-1.72c-0.934-0.964-2.399-0.964-3.266,0l-1.668,1.72c-0.354,0.387-0.953,0.413-1.339,0.06
			c-0.021-0.019-0.041-0.039-0.06-0.06l-1.601-1.72c-0.6-0.62-1.4-0.826-2.134-0.62V13.829z M4.532,17.334
			c0.4-0.205,0.867-0.205,1.2,0.141l1.667,1.719c0.467,0.482,1.067,0.688,1.667,0.688s1.199-0.206,1.666-0.688l1.668-1.719
			c0.398-0.413,0.999-0.413,1.399,0l1.666,1.719c0.934,0.964,2.4,0.964,3.268,0l1.666-1.719c0.4-0.413,1.002-0.413,1.399,0
			l1.668,1.719c0.935,0.964,2.399,0.964,3.267,0l1.668-1.719c0.332-0.346,0.865-0.346,1.267-0.069v3.783H4.532V17.334z
			 M31.666,24.765H2.333v-2.133h29.333V24.765z M16.297,1.86V0h1.406v1.86"/>
	</g>
</g>
<g class="sprite" id="cake-flame-icon">
	<path fill="#FFFFFF" d="M4.272,7.438L4.269,6.792c1.064-0.276,1.933-1.308,1.933-2.546c0-1.237-1.601-3.37-2.065-3.988
		C3.904-0.036,3.477-0.086,3.182,0.146C3.14,0.179,3.103,0.217,3.07,0.258C2.601,0.876,1,3.009,1,4.247
		c0,1.238,0.8,2.27,1.934,2.546v0.661"/>
	<path fill="#FFFFFF" d="M2.333,4.152c0-0.412,0.601-1.513,1.268-2.407c0.668,0.963,1.268,1.995,1.268,2.407
		c0,0.688-0.601,1.239-1.268,1.239S2.333,4.842,2.333,4.152z"/>
</g>
<g class="sprite" id="mic1-icon">
	<path fill="#196BB3" d="M20.691,0.025c-1.03-0.117-2.064,0.177-2.88,0.818c-0.816,0.663-1.34,1.621-1.454,2.667L4.688,13.603
		c-0.12,0.121-0.15,0.303-0.029,0.424l0.546,0.697L3.627,16.18c-0.121,0.121-0.121,0.272-0.03,0.424l0.121,0.121l-2.061,1.637
		l-0.062,0.061c-0.697,0.545-0.788,1.546-0.243,2.243c0.273,0.333,0.638,0.545,1.062,0.576c0.423,0.06,0.853-0.061,1.182-0.333
		l0.576-0.455c0.424-0.333,1.061-0.273,1.394,0.151c0.333,0.424,0.273,1.061-0.15,1.395l-0.576,0.454
		c-0.121,0.091-0.151,0.303-0.061,0.425C4.839,22.94,4.93,23,5.021,23c0.062,0,0.121-0.03,0.183-0.061l0.576-0.455
		c0.333-0.273,0.545-0.637,0.575-1.061C6.415,21,6.294,20.57,6.021,20.241c-0.545-0.697-1.545-0.788-2.242-0.243l-0.606,0.425
		c-0.212,0.151-0.455,0.242-0.727,0.212c-0.263-0.027-0.503-0.158-0.667-0.363c-0.333-0.455-0.272-1.061,0.151-1.395l2.121-1.697
		l0.122,0.151c0.061,0.061,0.152,0.122,0.243,0.122c0.061,0,0.121-0.03,0.182-0.061l1.758-1.212l0.545,0.697
		c0.062,0.061,0.152,0.122,0.243,0.122c0.062,0,0.121-0.03,0.183-0.061l12.457-9.123c0.15,0.03,0.333,0.03,0.484,0.03
		c0.879,0,1.729-0.303,2.424-0.849c0.818-0.636,1.334-1.576,1.455-2.606s-0.182-2.061-0.817-2.879
		C22.661,0.661,21.752,0.146,20.691,0.025L20.691,0.025z M4.477,16.755l-0.242-0.333l1.333-1.243l0.424,0.515L4.477,16.755
		L4.477,16.755z M19.722,7.178l-2.758-3.455c0.031-0.464,0.155-0.917,0.364-1.333l3.758,4.728
		C20.643,7.243,20.175,7.264,19.722,7.178z M22.328,6.511c-0.196,0.155-0.41,0.288-0.637,0.394l-4-5.062
		c0.15-0.182,0.333-0.364,0.515-0.515c1.425-1.132,3.495-0.902,4.637,0.515C23.995,3.298,23.752,5.389,22.328,6.511z"/>
</g>
<g class="sprite" id="d-8hand-icon">
	<path fill="#FFFFFF" stroke="#1E6AB2" stroke-width="2" stroke-miterlimit="10" d="M10.452,1.494l-5.89-1.439
		C2.938-0.342,1.468,1.476,1.083,3.154c-0.387,1.678,0.62,3.36,2.245,3.756L8.96,8.291L10.452,1.494L10.452,1.494z"/>
	<path fill="#61ABDE" stroke="#1E6AB2" stroke-width="2" stroke-miterlimit="10" d="M27.75,13.126
		c-0.721,0.05-1.439-0.035-2.069-0.155c1.109,0.21,0.95,0.432-16.926-4.117l1.765-7.466l15.298,3.834"/>
</g>
<g class="sprite" id="brifcase-icon">
	<g>
		<path fill="#FFFFFF" stroke="#1E6AB2" stroke-width="2" stroke-miterlimit="10" d="M30.863,30.958H2.37
			c-0.685,0-1.37-0.549-1.37-1.37v-18.22c0-0.687,0.548-1.37,1.37-1.37h28.493c0.686,0,1.369,0.548,1.369,1.37v18.22
			C32.096,30.273,31.549,30.958,30.863,30.958z"/>
		<path fill="none" stroke="#1E6AB2" stroke-width="2" stroke-miterlimit="10" d="M13.465,0c0,1.779-0.41,3.561-1.369,5.066
			C10.288,8.115,7.01,9.988,3.465,9.998 M21.274,0c0,1.779,0.411,3.561,1.37,5.066c1.808,3.049,5.086,4.923,8.631,4.932"/>
	</g>
</g>
<g class="sprite" id="d-4-icon">
	<path fill="#FFFFFF" stroke="#1B69B1" stroke-width="2" stroke-miterlimit="10" d="M53.059,86.76h6.935v21.087h-6.935V86.76z
		 M39.277,86.76h6.934v21.087h-6.934V86.76z"/>
	<path fill="#1B69B1" stroke="#1B69B1" stroke-width="2" stroke-miterlimit="10" d="M60.005,31.85H40.007V9.884
		C40.007,4.477,44.45,0,50.005,0c5.471,0,10,4.393,10,9.884V31.85z"/>
	<path fill="#FFFFFF" stroke="#1B69B1" stroke-width="2" stroke-miterlimit="10" d="M54.607,5.559
		c-1.922,4.466-6.44,7.602-11.63,7.602c-1.25,0-2.403-0.19-3.558-0.475c3.558,0.475,0.959,0.4,0.959,0.969
		c0,5.605,3.463,10.908,9.135,10.908c5.671,0,10.284-4.561,10.284-10.167C59.796,10.728,57.811,7.346,54.607,5.559z"/>
	<path fill="#1B69B1" stroke="#1B69B1" stroke-width="2" stroke-miterlimit="10" d="M69.999,86.582L64.723,70.92l-2.877-7.223
		V31.216c0-3.261-2.814-5.906-6.286-5.906H42.985c-3.472,0-6.286,2.645-6.286,5.906l-0.104,30.853l-7.528,24.439L69.999,86.582
		L69.999,86.582z"/>
	<path fill="#4092DC" stroke="#1B69B1" stroke-width="2" stroke-miterlimit="10" d="M53.001,112v-1.477
		c0-2.446,2.007-4.43,4.481-4.43s4.48,1.983,4.48,4.43V112"/>
	<path fill="#4092DC" fill-opacity="0" stroke="#1B69B1" stroke-width="2" stroke-miterlimit="10" d="M53.001,112v-1.477
		c0-2.446,2.007-4.43,4.481-4.43s4.48,1.983,4.48,4.43V112"/>
	<path fill="#4092DC" stroke="#1B69B1" stroke-width="2" stroke-miterlimit="10" d="M38.066,112v-1.477
		c0-2.446,2.006-4.43,4.48-4.43c2.476,0,4.481,1.983,4.481,4.43V112"/>
	<path fill="#4092DC" fill-opacity="0" stroke="#1B69B1" stroke-width="2" stroke-miterlimit="10" d="M38.066,112v-1.477
		c0-2.446,2.006-4.43,4.48-4.43c2.476,0,4.481,1.983,4.481,4.43V112"/>
	<g>
		<path fill="#4092DC" stroke="#1B69B1" stroke-width="2" stroke-miterlimit="10" d="M52.416,25.31h2.852
			c7.105,0,12.864,5.41,12.864,12.085v32.208h-6.286V37.121"/>
		<path fill="#4FAFF7" stroke="#1B69B1" stroke-width="2" stroke-miterlimit="10" d="M52.416,25.31h2.852
			c7.105,0,12.864,5.41,12.864,12.085v32.208h-6.286V37.121"/>
	</g>
	<g>
		<path fill="#FFFFFF" stroke="#1B69B1" stroke-width="2" stroke-miterlimit="10" d="M63.368,78.288
			c1.649,0,2.986-1.322,2.986-2.952v-5.907h-2.986V78.288z"/>
		<path fill="#FFFFFF" fill-opacity="0" stroke="#1B69B1" stroke-width="2" stroke-miterlimit="10" d="M63.368,78.288
			c1.649,0,2.986-1.322,2.986-2.952v-5.907h-2.986V78.288z"/>
	</g>
	<path fill="#4FAFF7" stroke="#1B69B1" stroke-width="2" stroke-miterlimit="10" d="M39.171,33.589c0,0-6.779,9.648-7.459,10.564
		c-0.778,1.049-2.372,3.447-5.89,3.181c-1.024-0.079-2.651-0.389-2.585-3.503c0.05-2.4,1.282-3.51,1.282-3.51l8.979-11.368
		c2.881-2.686,5.448-3.63,9.506-3.63h3.095"/>
	<path fill="#FFFFFF" stroke="#1B69B1" stroke-width="2" stroke-miterlimit="10" d="M10.33,36.269l-5.813-1.36
		c-1.605-0.376-3.056,1.344-3.436,2.93c-0.381,1.588,0.612,3.178,2.218,3.554l5.56,1.306L10.33,36.269L10.33,36.269z"/>
	<path fill="#4FAFF7" stroke="#1B69B1" stroke-width="2" stroke-miterlimit="10" d="M27.41,47.272
		c-0.712,0.047-1.42-0.035-2.043-0.148c1.093,0.197,0.937,0.408-16.711-3.895l1.741-7.06l15.104,3.626"/>
	<path fill="#FFFFFF" stroke="#FFFFFF" stroke-width="2" stroke-miterlimit="10" d="M48.055,23.583h2.282v3.038h-2.282V23.583z"/>
	<g>
		<path fill="#4FAFF7" d="M60.958,36.082l-4.301-9.893l-2.63-0.153c0.15,0.409,0.232,0.844,0.232,1.296
			c0,2.379-2.264,4.31-5.059,4.31c-2.793,0-5.058-1.931-5.058-4.311c0-0.399,0.068-0.785,0.188-1.152l-2.597,0.184l-3.687,6.334
			l1.931,1.562l-2.545,3.905l0.088,23.95h23.524L60.958,36.082z"/>
	</g>
	<path fill="#FFFFFF" d="M44.33,26.185c-0.122,0.37-0.185,0.757-0.187,1.147c0,2.38,2.265,4.311,5.058,4.311
		c2.795,0,5.059-1.931,5.059-4.31c0-0.414-0.072-0.813-0.199-1.191L44.33,26.185z"/>
</g>
<g class="sprite" id="d-5-icon">
	<path fill="#FFFFFF" stroke="#1B69B1" stroke-width="2" stroke-miterlimit="10" d="M11.006,86.76h6.935v21.087h-6.935V86.76z
		 M24.788,86.76h6.934v21.087h-6.934V86.76z"/>
	<path fill="#1B69B1" stroke="#1B69B1" stroke-width="2" stroke-miterlimit="10" d="M10.994,31.85h19.998V9.884
		C30.992,4.477,26.549,0,20.994,0c-5.471,0-10,4.393-10,9.884V31.85z"/>
	<path fill="#FFFFFF" stroke="#1B69B1" stroke-width="2" stroke-miterlimit="10" d="M16.392,5.559
		c1.922,4.466,6.44,7.602,11.63,7.602c1.25,0,2.403-0.19,3.558-0.475c-3.558,0.475-0.959,0.4-0.959,0.969
		c0,5.605-3.463,10.908-9.135,10.908c-5.671,0-10.284-4.561-10.284-10.167C11.203,10.728,13.188,7.346,16.392,5.559z"/>
	<path fill="#1B69B1" stroke="#1B69B1" stroke-width="2" stroke-miterlimit="10" d="M1,86.582L6.276,70.92l2.877-7.223V31.216
		c0-3.261,2.814-5.906,6.286-5.906h12.574c3.472,0,6.286,2.645,6.286,5.906l0.104,30.853l7.528,24.439L1,86.582L1,86.582z"/>
	<path fill="#4092DC" stroke="#1B69B1" stroke-width="2" stroke-miterlimit="10" d="M17.998,112v-1.477
		c0-2.446-2.007-4.43-4.481-4.43s-4.48,1.983-4.48,4.43V112"/>
	<path fill="#4092DC" fill-opacity="0" stroke="#1B69B1" stroke-width="2" stroke-miterlimit="10" d="M17.998,112v-1.477
		c0-2.446-2.007-4.43-4.481-4.43s-4.48,1.983-4.48,4.43V112"/>
	<path fill="#4092DC" stroke="#1B69B1" stroke-width="2" stroke-miterlimit="10" d="M32.933,112v-1.477
		c0-2.446-2.006-4.43-4.48-4.43c-2.476,0-4.481,1.983-4.481,4.43V112"/>
	<path fill="#4092DC" fill-opacity="0" stroke="#1B69B1" stroke-width="2" stroke-miterlimit="10" d="M32.933,112v-1.477
		c0-2.446-2.006-4.43-4.48-4.43c-2.476,0-4.481,1.983-4.481,4.43V112"/>
	<g>
		<path fill="#4092DC" stroke="#1B69B1" stroke-width="2" stroke-miterlimit="10" d="M18.583,25.31h-2.852
			c-7.105,0-12.864,5.41-12.864,12.085v32.208h6.286V37.121"/>
		<path fill="#4FAFF7" stroke="#1B69B1" stroke-width="2" stroke-miterlimit="10" d="M18.583,25.31h-2.852
			c-7.105,0-12.864,5.41-12.864,12.085v32.208h6.286V37.121"/>
	</g>
	<g>
		<path fill="#FFFFFF" stroke="#1B69B1" stroke-width="2" stroke-miterlimit="10" d="M7.631,78.288
			c-1.649,0-2.986-1.322-2.986-2.952v-5.907h2.986V78.288z"/>
		<path fill="#FFFFFF" fill-opacity="0" stroke="#1B69B1" stroke-width="2" stroke-miterlimit="10" d="M7.631,78.288
			c-1.649,0-2.986-1.322-2.986-2.952v-5.907h2.986V78.288z"/>
	</g>
	<path fill="#4FAFF7" stroke="#1B69B1" stroke-width="2" stroke-miterlimit="10" d="M31.828,33.589c0,0,6.779,9.648,7.459,10.564
		c0.778,1.049,2.372,3.447,5.89,3.181c1.024-0.079,2.651-0.389,2.585-3.503c-0.05-2.4-1.282-3.51-1.282-3.51l-8.979-11.368
		c-2.881-2.686-5.448-3.63-9.506-3.63H24.9"/>
	<path fill="#FFFFFF" stroke="#1B69B1" stroke-width="2" stroke-miterlimit="10" d="M60.669,36.269l5.814-1.36
		c1.605-0.376,3.056,1.343,3.435,2.93c0.38,1.588-0.613,3.179-2.217,3.554l-5.56,1.307L60.669,36.269L60.669,36.269z"/>
	<path fill="#4FAFF7" stroke="#1B69B1" stroke-width="2" stroke-miterlimit="10" d="M43.588,47.272
		c0.713,0.048,1.421-0.034,2.044-0.147c-1.093,0.198-0.937,0.408,16.71-3.894l-1.741-7.06l-15.104,3.626"/>
	<path fill="#FFFFFF" stroke="#FFFFFF" stroke-width="2" stroke-miterlimit="10" d="M20.662,23.583h2.282v3.038h-2.282V23.583z"/>
	<g>
		<path fill="#4FAFF7" d="M10.041,36.082l4.301-9.893l2.63-0.153c-0.15,0.409-0.232,0.844-0.232,1.296
			c0,2.379,2.264,4.31,5.059,4.31c2.793,0,5.058-1.931,5.058-4.311c0-0.399-0.068-0.785-0.188-1.152l2.597,0.184l3.687,6.334
			l-1.932,1.563l2.545,3.905l-0.088,23.95H9.953L10.041,36.082z"/>
	</g>
	<path fill="#FFFFFF" d="M26.669,26.185c0.118,0.366,0.187,0.749,0.187,1.147c0,2.38-2.265,4.311-5.058,4.311
		c-2.795,0-5.059-1.931-5.059-4.31c0-0.414,0.072-0.813,0.199-1.191L26.669,26.185z"/>
</g>
<g class="sprite" id="table-icon">
	<g>
		<path fill="#FFFFFF" stroke="#1F6BB2" stroke-width="3" stroke-miterlimit="10" d="M1,0h316 M28,0v57 M290,0v57"/>
	</g>
</g>
<g class="sprite" id="d-3foot-icon">
	<g>
		<path fill="#FFFFFF" stroke="#226BB2" stroke-width="2" stroke-miterlimit="10" d="M1,6.291h20.214V0H9.594L3.561,1.738
			C1.992,2.6,1,4.363,1,6.291z"/>
		<path fill="#FFFFFF" stroke="#226BB2" stroke-width="2" stroke-miterlimit="10" d="M1,6.291h20.214V0H9.594L3.561,1.738
			C1.992,2.6,1,4.363,1,6.291z"/>
		<path fill="#FFFFFF" stroke="#226BB2" stroke-width="2" stroke-miterlimit="10" d="M1,6.291h20.214V0H9.594L3.561,1.738
			C1.992,2.6,1,4.363,1,6.291z"/>
	</g>
</g>
<g class="sprite" id="d-10foot-icon">
	<g>
		<path fill="#FFFFFF" stroke="#226BB2" stroke-width="2" stroke-miterlimit="10" d="M1,6.291h20.215V0H9.595L3.562,1.738
			C1.992,2.6,1,4.363,1,6.291z"/>
		<path fill="#FFFFFF" stroke="#226BB2" stroke-width="2" stroke-miterlimit="10" d="M1,6.291h20.215V0H9.595L3.562,1.738
			C1.992,2.6,1,4.363,1,6.291z"/>
		<path fill="#FFFFFF" stroke="#226BB2" stroke-width="2" stroke-miterlimit="10" d="M1,6.291h20.215V0H9.595L3.562,1.738
			C1.992,2.6,1,4.363,1,6.291z"/>
	</g>
</g>
<g class="sprite" id="graph-icon">
	<path fill="#4891CE" d="M1,0h7.033v33.325H1V0z M12.246,14.013h7.032v19.313h-7.032V14.013z M22.831,23.782h7.033v9.543h-7.033
		V23.782z M34.575,3.363h13.758v2.159H34.575V3.363z M34.575,7.156h22.361v2.158H34.575V7.156z M34.575,11.211h30.486v2.158H34.575
		V11.211z M64.597,27.534c0,3.195-2.604,5.791-5.812,5.791s-5.812-2.596-5.812-5.791h5.812v-5.793
		C61.992,21.741,64.597,24.337,64.597,27.534z"/>
	<path fill="#4891CE" d="M57.608,20.53v5.795h-5.812C51.797,23.128,54.399,20.53,57.608,20.53z M47.326,28.024
		c0,1.93-1.571,3.496-3.507,3.496s-3.506-1.566-3.506-3.496h3.506l1.906-2.934C46.723,25.732,47.326,26.837,47.326,28.024z"/>
	<path fill="#4891CE" d="M43.321,27.26l1.904-2.931c-0.566-0.369-1.228-0.564-1.904-0.563v-0.001
		c-1.934-0.003-3.504,1.562-3.508,3.496c0,0,0,0.001,0,0.001h3.508V27.26z"/>
</g>
<g class="sprite" id="board-1-icon">
	<path fill="#FFFFFF" stroke="#1E6AB2" stroke-width="2" stroke-miterlimit="10" d="M1,0h76v47.391H1V0z"/>
	<path fill="none" stroke="#196BB2" stroke-width="2" stroke-miterlimit="10" d="M6.496,118l30.13-37.128v-32.54 M36.626,80.872
		l30.131,36.711"/>
</g>
<g class="sprite" id="d-1foot-icon">
	<path fill="#FFFFFF" stroke="#1E6AB2" stroke-width="2" stroke-miterlimit="10" d="M1,0h76v47.391H1V0z"/>
	<path fill="none" stroke="#196BB2" stroke-width="2" stroke-miterlimit="10" d="M6.496,118l30.13-37.128v-32.54 M36.626,80.872
		l30.131,36.711"/>
</g>
<g class="sprite" id="d-6foot-icon">
	<g>
		<path fill="#FFFFFF" stroke="#226BB2" d="M17.7,1.7l-6-1.7L0,0l0,6.3h20.2C20.2,4.4,19.2,2.6,17.7,1.7z"/>
		<path fill="#FFFFFF" stroke="#226BB2" d="M17.7,1.7l-6-1.7L0,0l0,6.3h20.2C20.2,4.4,19.2,2.6,17.7,1.7z"/>
		<path fill="#FFFFFF" stroke="#226BB2" d="M17.7,1.7l-6-1.7L0,0l0,6.3h20.2C20.2,4.4,19.2,2.6,17.7,1.7z"/>
	</g>
</g>
<g class="sprite" id="unity-icon">
	<g style="display:inline;">
		<path style="fill:#1E1E1E;" d="M19.6,1.1c0.7-0.4,1.3-0.7,2.1-0.8C10.7,2.6,0.1,12.9,0,25.2c-0.2,16.4,15.5,28.5,19.3,31.3
			C-10.5,17.7,19.6,1.1,19.6,1.1z"/>
		<path style="fill:#1E1E1E;" d="M21.4,56.7h2.7C13.7,18.1,24.7,0.3,24.7,0.3c0.2-0.1,0.4-0.2,0.7-0.3c-1,0-2.1,0.1-3.1,0.3
			c0.4-0.1,0.7-0.1,0.7-0.1C2.6,16.5,19.8,53.5,21.4,56.7z M27.9,56.7h2.7c1.7-3.3,20.4-39.3,0.4-56h0.2c-1-0.3-2.2-0.4-3.2-0.5
			C36.6,17,28.3,54.5,27.9,56.7z"/>
		<path style="fill:#1E1E1E;" d="M32.8,56.5c4-2.9,18.9-15.3,19.4-30.5c0.3-11-8.3-20.6-18-24.4C37.6,3.8,61.3,21.3,32.8,56.5z"/>
		<path style="fill:#FFFFFF;" d="M21.4,56.7c-1.6-3.2-18.8-40.2,1.7-56.5c0,0-0.3,0-0.7,0.1c-0.2,0-0.4,0.1-0.8,0.1
			c-0.7,0.1-1.5,0.4-2.1,0.8c0,0-30.2,16.5-0.3,55.4c0.1,0,0.1,0.1,0.2,0.1L21.4,56.7z M31.1,0.8c20.1,16.7,1.3,52.8-0.4,56h1.7v0.1
			c0.1-0.1,0.2-0.2,0.4-0.3C61.2,21.3,37.6,4,34.1,1.7c-0.9-0.4-2-0.7-2.9-1C31.1,0.7,31.1,0.8,31.1,0.8z"/>
		<path style="fill:#FFFFFF;" d="M24.1,56.7h3.8C28.3,54.5,36.5,17,28,0.1C27.4,0,26.8,0,26.3,0h-0.8c-0.2,0.1-0.4,0.1-0.7,0.3
			C24.9,0.3,13.8,18.1,24.1,56.7z"/>
		<path style="fill:#1E1E1E;" d="M20.6,68.5l-0.8-10.3h0.4l0.2,2l0.9-1.7l0.2,0.1l-1,2l0.4,7.9H20.6z M25.8,66.8l0.1-6l1.4-2.1
			l-0.2-0.1l-1.2,1.7v-2.6h-0.2v2.6l-1.3-1.9l-0.2,0.1l1.5,2.1l-0.1,6.2 M30.8,65.3l0.6-4.5l-1.2-2.2l0.2-0.1l1,1.9l0.3-2h0.2
			l-0.8,6.9L30.8,65.3z"/>
		<path style="fill:#1E1E1E;" d="M31.8,58.9l-11.7-0.1l-3-4L34.7,55L31.8,58.9z"/>
		<path style="fill:#545454;" d="M19.6,58.2l-0.4-0.5l13.3,0.1l-0.4,0.5L19.6,58.2z M18,55.9l-0.4-0.5l16.7,0.2l-0.5,0.5L18,55.9z"
			/>
	</g>
	<path style="display:inline;fill:#1E1E1E;" d="M29.8,78.1l-3.1-5.2l3.1-5.2l1.5,5.2L29.8,78.1z M23,77.6l-3.9-3.8h6.2l3.1,5.2
		L23,77.6z M23,68.2l5.4-1.3L25.3,72h-6.2L23,68.2z M30.9,64.3l-7,1.8l-1,1.8l-2.1,0l-5.1,5l5.1,5l2.1,0l1,1.8l7,1.8l1.9-6.8
		l-1.1-1.8l1.1-1.8L30.9,64.3z"/>
</g>
<g class="sprite" id="vue-icon">
	<path style="display:inline;fill:#41B883;" d="M27.6,1.6c0.8-0.5,2-0.8,2.9-1C15,3.6,0.2,18.2,0,35.5c-0.3,23.1,21.8,40.2,27.1,44
		C-14.7,24.9,27.6,1.6,27.6,1.6z"/>
	<path style="display:inline;fill:#41B883;" d="M30,79.7l3.8,0C19.4,25.4,34.9,0.4,34.9,0.4c0.3-0.2,0.6-0.3,0.9-0.4
		c-1.4,0-2.9,0.2-4.3,0.4c0.5-0.1,0.9-0.1,0.9-0.1C3.6,23.1,27.8,75.2,30,79.7z M39.2,79.8l3.8,0c2.5-4.6,28.8-55.3,0.6-78.8
		c0,0,0-0.1,0.3,0c-1.5-0.4-3-0.6-4.5-0.8c0,0,0.1,0,0.1,0C51.5,24,39.9,76.7,39.2,79.8z"/>
	<path style="display:inline;fill:#41B883;" d="M46.1,79.5c5.6-4.3,26.6-21.6,27.3-43C73.8,21,61.8,7.4,48,2.2
		C52.8,5.4,86.1,29.9,46.1,79.5z"/>
	<path style="display:inline;fill:#FFFFFF;" d="M30,79.7c-2.2-4.5-26.5-56.6,2.4-79.4c0,0-0.4,0-0.9,0.1c-0.3,0.1-0.7,0.1-1,0.2
		c-1,0.2-2.1,0.5-2.9,1c0,0-42.4,23.2-0.5,77.9c0.1,0.1,0.2,0.1,0.3,0.2L30,79.7z M43.6,1c28.2,23.5,1.9,74.3-0.6,78.8l2.5,0l0,0.1
		c0.2-0.1,0.4-0.3,0.6-0.4c40-49.6,6.7-74.1,1.9-77.3c-1.4-0.5-2.7-0.9-4.1-1.3C43.6,0.9,43.6,1,43.6,1z"/>
	<path style="display:inline;fill:#FFFFFF;" d="M33.9,79.7l5.4,0c0.7-3.1,12.3-55.8,0.2-79.6c0,0,0,0-0.1,0C38.5,0.1,37.7,0,36.8,0
		c-0.3,0-0.7,0-1,0c-0.3,0.1-0.6,0.2-0.9,0.4C34.9,0.4,19.4,25.4,33.9,79.7z"/>
	<path style="display:inline;fill:#41B883;" d="M29,91.8L28,82l0.4,0l0.3,2.8l1.2-2.3l0.3,0.2l-1.5,2.8l0.6,6.5L29,91.8z M43.4,91.9
		l0.7-6.3l-1.7-3.1l0.3-0.2l1.5,2.7l0.3-2.8l0.4,0l-1.1,9.7L43.4,91.9z"/>
	<path style="display:inline;fill:#389665;" d="M44.7,82.8l-16.6-0.2L24,77.2l24.7,0.3L44.7,82.8z"/>
	<path style="display:inline;fill:#41B883;" d="M27.6,81.9L27,81.2l18.8,0.3l-0.6,0.8L27.6,81.9z M25.2,78.7l-0.6-0.8l23.6,0.3
		L47.6,79L25.2,78.7z"/>
	<g transform="matrix(1.3333 0 0 -1.3333 -76.311 313.34)" style="display:inline;">
		<g transform="translate(178.06 235.01)">
			<path style="fill:#41B883;" d="M-91.3-68.9l-2.7-4.7l-2.7,4.7h-9L-94-89.2l11.7,20.3H-91.3z"/>
		</g>
		<g transform="translate(178.06 235.01)">
			<path style="fill:#34495E;" d="M-91.3-68.9l-2.7-4.7l-2.7,4.7h-4.3l7-12.2l7,12.2H-91.3z"/>
		</g>
	</g>
</g>
<g class="sprite" id="react-icon">
	<path style="display:inline;fill:#61DAFB;" d="M19.6,1.1c0.7-0.4,1.3-0.7,2.1-0.8C10.7,2.6,0.1,12.9,0,25.2
		c-0.2,16.4,15.5,28.5,19.3,31.3C-10.5,17.7,19.6,1.1,19.6,1.1z"/>
	<path style="display:inline;fill:#61DAFB;" d="M21.4,56.7h2.7C13.7,18.1,24.7,0.3,24.7,0.3c0.2-0.1,0.4-0.2,0.7-0.3
		c-1,0-2.1,0.1-3.1,0.3c0.4-0.1,0.7-0.1,0.7-0.1C2.6,16.5,19.8,53.5,21.4,56.7z M27.9,56.7h2.7c1.7-3.3,20.4-39.3,0.4-56h0.2
		c-1-0.3-2.2-0.4-3.2-0.5C36.6,17,28.3,54.5,27.9,56.7z"/>
	<path style="display:inline;fill:#61DAFB;" d="M32.8,56.5c4-2.9,18.9-15.3,19.4-30.5c0.3-11-8.3-20.6-18-24.4
		C37.6,3.8,61.3,21.3,32.8,56.5z"/>
	<path style="display:inline;fill:#FFFFFF;" d="M21.4,56.7c-1.6-3.2-18.8-40.2,1.7-56.5c0,0-0.3,0-0.7,0.1c-0.2,0-0.4,0.1-0.8,0.1
		c-0.7,0.1-1.5,0.4-2.1,0.8c0,0-30.2,16.5-0.3,55.4c0.1,0,0.1,0.1,0.2,0.1L21.4,56.7z M31.1,0.8c20.1,16.7,1.3,52.8-0.4,56h1.7v0.1
		c0.1-0.1,0.2-0.2,0.4-0.3C61.2,21.3,37.6,4,34.1,1.7c-0.9-0.4-2-0.7-2.9-1C31.1,0.7,31.1,0.8,31.1,0.8z"/>
	<path style="display:inline;fill:#FFFFFF;" d="M24.1,56.7h3.8C28.3,54.5,36.5,17,28,0.1C27.4,0,26.8,0,26.3,0h-0.8
		c-0.2,0.1-0.4,0.1-0.7,0.3C24.9,0.3,13.8,18.1,24.1,56.7z"/>
	<path style="display:inline;fill:#43B6D1;" d="M20.4,64.8l-0.5-6.6h0.4l0.2,2l0.9-1.7l0.2,0.1l-1,2l0.2,4.1L20.4,64.8z M25.8,67.4
		l0.1-6.7l1.4-2.1l-0.2-0.1l-1.2,1.7v-2.6h-0.2v2.6l-1.3-1.9l-0.2,0.1l1.5,2.1l-0.1,7.2 M30.9,64.4l0.5-3.7l-1.2-2.2l0.2-0.1l1,1.9
		l0.3-2h0.2l-0.7,6.5L30.9,64.4z"/>
	<path style="display:inline;fill:#61DAFB;" d="M31.8,58.9l-11.7-0.1l-3-4L34.7,55L31.8,58.9z"/>
	<path style="display:inline;fill:#43B6D1;" d="M19.6,58.2l-0.4-0.5l13.3,0.1l-0.4,0.5L19.6,58.2z M18,55.9l-0.4-0.5l16.7,0.2
		l-0.5,0.5L18,55.9z"/>
	<g style="display:inline;">
		<path style="fill:#61DAFB;" d="M36.8,73.5c0-1.4-1.8-2.8-4.6-3.7c0.6-2.8,0.4-5.1-0.9-5.8c-0.3-0.2-0.6-0.2-1-0.2v1
			c0.2,0,0.4,0,0.5,0.1c0.6,0.3,0.9,1.7,0.7,3.4c0,0.4-0.1,0.9-0.2,1.3c-0.9-0.2-1.8-0.4-2.8-0.5c-0.6-0.8-1.2-1.6-1.9-2.2
			c1.5-1.3,2.8-2.1,3.7-2.1v-1l0,0c-1.2,0-2.8,0.9-4.4,2.4c-1.6-1.5-3.2-2.4-4.4-2.4v1c0.9,0,2.3,0.7,3.7,2.1
			c-0.6,0.7-1.2,1.4-1.8,2.2c-1,0.1-2,0.3-2.8,0.5c-0.1-0.4-0.2-0.9-0.2-1.3c-0.2-1.7,0-3,0.7-3.4c0.1-0.1,0.3-0.1,0.5-0.1v-1l0,0
			c-0.4,0-0.7,0.1-1,0.2c-1.3,0.7-1.5,3-0.9,5.8c-2.8,0.9-4.6,2.2-4.6,3.7c0,1.4,1.8,2.8,4.6,3.7c-0.6,2.8-0.4,5.1,0.9,5.8
			c0.3,0.2,0.6,0.2,1,0.2c1.2,0,2.8-0.9,4.4-2.4c1.6,1.5,3.2,2.4,4.4,2.4c0.4,0,0.7-0.1,1-0.2c1.3-0.7,1.5-3,0.9-5.8
			C35,76.3,36.8,75,36.8,73.5z M31,70.6c-0.2,0.6-0.4,1.2-0.6,1.8c-0.2-0.4-0.4-0.7-0.6-1.1c-0.2-0.4-0.4-0.7-0.6-1
			C29.8,70.3,30.4,70.4,31,70.6z M28.9,75.3c-0.3,0.6-0.7,1.2-1.1,1.7c-0.7,0.1-1.3,0.1-2,0.1c-0.7,0-1.3,0-2-0.1
			c-0.4-0.5-0.7-1.1-1.1-1.7c-0.3-0.6-0.6-1.2-0.9-1.8c0.3-0.6,0.6-1.2,0.9-1.8c0.3-0.6,0.7-1.2,1.1-1.7c0.7-0.1,1.3-0.1,2-0.1
			c0.7,0,1.3,0,2,0.1c0.4,0.5,0.7,1.1,1.1,1.7c0.3,0.6,0.6,1.2,0.9,1.8C29.6,74.1,29.3,74.7,28.9,75.3z M30.4,74.7
			c0.2,0.6,0.4,1.2,0.6,1.8c-0.6,0.1-1.2,0.3-1.8,0.4c0.2-0.3,0.4-0.7,0.6-1.1C30,75.4,30.2,75.1,30.4,74.7z M25.8,79.5
			C25.4,79,25,78.6,24.6,78c0.4,0,0.8,0,1.2,0c0.4,0,0.8,0,1.2,0C26.7,78.6,26.3,79,25.8,79.5z M22.5,76.8c-0.6-0.1-1.2-0.2-1.8-0.4
			c0.2-0.6,0.4-1.2,0.6-1.8c0.2,0.4,0.4,0.7,0.6,1.1C22.1,76.2,22.3,76.5,22.5,76.8z M25.8,67.6c0.4,0.4,0.8,0.9,1.2,1.4
			c-0.4,0-0.8,0-1.2,0c-0.4,0-0.8,0-1.2,0C25,68.5,25.4,68,25.8,67.6z M22.5,70.2c-0.2,0.3-0.4,0.7-0.6,1.1
			c-0.2,0.4-0.4,0.7-0.6,1.1c-0.2-0.6-0.4-1.2-0.6-1.8C21.3,70.4,21.9,70.3,22.5,70.2z M18.5,75.8c-1.6-0.7-2.6-1.6-2.6-2.3
			c0-0.7,1-1.6,2.6-2.3c0.4-0.2,0.8-0.3,1.2-0.4c0.3,0.9,0.6,1.8,1,2.7c-0.4,0.9-0.7,1.8-1,2.7C19.3,76.1,18.9,75.9,18.5,75.8z
			 M20.9,82.1c-0.6-0.3-0.9-1.7-0.7-3.4c0-0.4,0.1-0.9,0.2-1.3c0.9,0.2,1.8,0.4,2.8,0.5c0.6,0.8,1.2,1.6,1.9,2.2
			c-1.5,1.3-2.8,2.1-3.7,2.1C21.2,82.3,21,82.2,20.9,82.1z M31.5,78.7c0.2,1.7,0,3-0.7,3.4c-0.1,0.1-0.3,0.1-0.5,0.1
			c-0.9,0-2.3-0.7-3.7-2.1c0.6-0.7,1.2-1.4,1.8-2.2c1-0.1,2-0.3,2.8-0.5C31.3,77.9,31.4,78.3,31.5,78.7z M33.2,75.8
			c-0.4,0.2-0.8,0.3-1.2,0.4c-0.3-0.9-0.6-1.8-1-2.7c0.4-0.9,0.7-1.8,1-2.7c0.4,0.1,0.9,0.3,1.3,0.5c1.6,0.7,2.6,1.6,2.6,2.3
			C35.8,74.2,34.7,75.1,33.2,75.8z"/>
		<path style="fill:#61DAFB;" d="M21.4,63.8L21.4,63.8L21.4,63.8z"/>
		<circle style="fill:#61DAFB;" cx="25.8" cy="73.5" r="2"/>
		<path style="fill:#61DAFB;" d="M30.3,63.8L30.3,63.8L30.3,63.8z"/>
	</g>
</g>
<g class="sprite" id="xamrin-icon">
	<path style="display:inline;fill:#3498DB;" d="M19.6,1.1c0.7-0.4,1.3-0.7,2.1-0.8C10.7,2.6,0.1,12.9,0,25.2
		c-0.2,16.4,15.5,28.5,19.3,31.3C-10.5,17.7,19.6,1.1,19.6,1.1z"/>
	<path style="display:inline;fill:#3498DB;" d="M21.4,56.7h2.7C13.7,18.1,24.7,0.3,24.7,0.3c0.2-0.1,0.4-0.2,0.7-0.3
		c-1,0-2.1,0.1-3.1,0.3c0.4-0.1,0.7-0.1,0.7-0.1C2.6,16.5,19.8,53.5,21.4,56.7z M27.9,56.7h2.7c1.7-3.3,20.4-39.3,0.4-56h0.2
		c-1-0.3-2.2-0.4-3.2-0.5C36.6,17,28.3,54.5,27.9,56.7z"/>
	<path style="display:inline;fill:#3498DB;" d="M32.8,56.5c4-2.9,18.9-15.3,19.4-30.5c0.3-11-8.3-20.6-18-24.4
		C37.6,3.8,61.3,21.3,32.8,56.5z"/>
	<path style="display:inline;fill:#FFFFFF;" d="M21.4,56.7c-1.6-3.2-18.8-40.2,1.7-56.5c0,0-0.3,0-0.7,0.1c-0.2,0-0.4,0.1-0.8,0.1
		c-0.7,0.1-1.5,0.4-2.1,0.8c0,0-30.2,16.5-0.3,55.4c0.1,0,0.1,0.1,0.2,0.1L21.4,56.7z M31.1,0.8c20.1,16.7,1.3,52.8-0.4,56h1.7v0.1
		c0.1-0.1,0.2-0.2,0.4-0.3C61.2,21.3,37.6,4,34.1,1.7c-0.9-0.4-2-0.7-2.9-1C31.1,0.7,31.1,0.8,31.1,0.8z"/>
	<path style="display:inline;fill:#FFFFFF;" d="M24.1,56.7h3.8C28.3,54.5,36.5,17,28,0.1C27.4,0,26.8,0,26.3,0h-0.8
		c-0.2,0.1-0.4,0.1-0.7,0.3C24.9,0.3,13.8,18.1,24.1,56.7z"/>
	<path style="display:inline;fill:#2889BF;" d="M20.4,65l-0.5-6.8h0.4l0.2,2l0.9-1.7l0.2,0.1l-1,2l0.2,4.1L20.4,65z M25.8,67.4
		l0.1-6.7l1.4-2.1l-0.2-0.1l-1.2,1.7v-2.6h-0.2v2.6l-1.3-1.9l-0.2,0.1l1.5,2.1l-0.1,7.2 M30.9,65l0.5-4.2l-1.2-2.2l0.2-0.1l1,1.9
		l0.3-2h0.2l-0.7,6.7L30.9,65z"/>
	<path style="display:inline;fill:#3498DB;" d="M31.8,58.9l-11.7-0.1l-3-4L34.7,55L31.8,58.9z"/>
	<path style="display:inline;fill:#2889BF;" d="M19.6,58.2l-0.4-0.5l13.3,0.1l-0.4,0.5L19.6,58.2z M18,55.9l-0.4-0.5l16.7,0.2
		l-0.5,0.5L18,55.9z"/>
	<g id="xamarin-logo" style="display:inline;">
		<path id="Logo"  style="fill:#3498DB;" d="M21.5,63.2c-0.5,0-1,0.3-1.3,0.8l-4.1,7.2
			c-0.3,0.5-0.3,1.1,0,1.5l4.1,7.2c0.3,0.5,0.8,0.8,1.3,0.8h8.3c0.5,0,1-0.3,1.3-0.8l4.1-7.2c0.3-0.5,0.3-1.1,0-1.5L31.1,64
			c-0.3-0.5-0.8-0.8-1.3-0.8H21.5z M21.6,67.4C21.6,67.4,21.6,67.4,21.6,67.4H23c0.1,0,0.1,0,0.2,0.1l2.4,4.3c0,0,0,0,0,0.1
			c0,0,0,0,0-0.1l2.4-4.3c0-0.1,0.1-0.1,0.2-0.1h1.4c0.1,0,0.2,0.2,0.2,0.3l-2.4,4.2l2.4,4.2c0.1,0.1,0,0.3-0.2,0.3h-1.4
			c-0.1,0-0.1,0-0.2-0.1L25.7,72c0,0,0,0,0-0.1c0,0,0,0,0,0.1l-2.4,4.3c0,0.1-0.1,0.1-0.2,0.1h-1.4c-0.1,0-0.2-0.2-0.2-0.3l2.4-4.2
			l-2.4-4.2C21.4,67.6,21.5,67.4,21.6,67.4L21.6,67.4z"/>
	</g>
</g>
<g class="sprite" id="hololense-icons">
	<g style="display:inline;">
		<path d="M19.6,1.1c0.7-0.4,1.3-0.7,2.1-0.8C10.7,2.6,0.1,12.9,0,25.2c-0.2,16.4,15.5,28.5,19.3,31.3C-10.5,17.7,19.6,1.1,19.6,1.1
			z"/>
		<path d="M21.4,56.7h2.7C13.7,18.1,24.7,0.3,24.7,0.3c0.2-0.1,0.4-0.2,0.7-0.3c-1,0-2.1,0.1-3.1,0.3c0.4-0.1,0.7-0.1,0.7-0.1
			C2.6,16.5,19.8,53.5,21.4,56.7z M27.9,56.7h2.7c1.7-3.3,20.4-39.3,0.4-56h0.2c-1-0.3-2.2-0.4-3.2-0.5C36.6,17,28.3,54.5,27.9,56.7
			z"/>
		<path d="M32.8,56.5c4-2.9,18.9-15.3,19.4-30.5c0.3-11-8.3-20.6-18-24.4C37.6,3.8,61.3,21.3,32.8,56.5z"/>
		<path style="fill:#FFFFFF;" d="M21.4,56.7c-1.6-3.2-18.8-40.2,1.7-56.5c0,0-0.3,0-0.7,0.1c-0.2,0-0.4,0.1-0.8,0.1
			c-0.7,0.1-1.5,0.4-2.1,0.8c0,0-30.2,16.5-0.3,55.4c0.1,0,0.1,0.1,0.2,0.1L21.4,56.7z M31.1,0.8c20.1,16.7,1.3,52.8-0.4,56h1.7v0.1
			c0.1-0.1,0.2-0.2,0.4-0.3C61.2,21.3,37.6,4,34.1,1.7c-0.9-0.4-2-0.7-2.9-1C31.1,0.7,31.1,0.8,31.1,0.8z"/>
		<path style="fill:#FFFFFF;" d="M24.1,56.7h3.8C28.3,54.5,36.5,17,28,0.1C27.4,0,26.8,0,26.3,0h-0.8c-0.2,0.1-0.4,0.1-0.7,0.3
			C24.9,0.3,13.8,18.1,24.1,56.7z"/>
		<path style="fill:#1E1E1E;" d="M20.6,68.5l-0.8-10.3h0.4l0.2,2l0.9-1.7l0.2,0.1l-1,2l0.4,7.9H20.6z M25.8,66.8l0.1-6l1.4-2.1
			l-0.2-0.1l-1.2,1.7v-2.6h-0.2v2.6l-1.3-1.9l-0.2,0.1l1.5,2.1l-0.1,6.2 M30.7,66.5l0.7-5.8l-1.2-2.2l0.2-0.1l1,1.9l0.3-2h0.2
			L31,66.5H30.7z"/>
		<path d="M31.8,58.9l-11.7-0.1l-3-4L34.7,55L31.8,58.9z"/>
		<path style="fill:#545454;" d="M19.6,58.2l-0.4-0.5l13.3,0.1l-0.4,0.5L19.6,58.2z M18,55.9l-0.4-0.5l16.7,0.2l-0.5,0.5L18,55.9z"
			/>
	</g>
	<g style="display:inline;">
		<g transform="translate(0.000000,511.000000) scale(0.100000,-0.100000)">
			<path d="M232.6,4456.4c-34.2-1.8-63.7-7.6-81.5-16.1c-6.2-3-6-2.2-5.2-18.8c0.4-7.6,0.9-14,1.1-14.3c0.3-0.3,2.4,0.1,5.7,1
				c24,7.2,51.5,11.7,82,13.5c13.1,0.8,45.9,0.3,58.4-0.8c25.1-2.3,47.6-6.1,67.2-11.5c5.4-1.5,6.8-1.7,7.3-1.2
				c0.4,0.5,0.8,5.2,1.1,13.8c0.5,11.4,0.5,13.4-0.2,14.6c-1.9,3.6-20.8,10.4-39.7,14.2C304.1,4455.9,266.1,4458.1,232.6,4456.4z"/>
			<path d="M133.6,4430.4c-4.9-3.5-7.3-5.5-8.1-6.9c-0.8-1.4-0.9-2.8-0.9-12.9c0-9,0.2-11.4,0.7-11.6c0.9-0.4,11.2,3.7,12.4,4.9
				c0.9,0.9,0.9,1.5,0.1,13.5c-0.4,6.9-0.8,12.9-0.8,13.3C136.9,4431.8,135.4,4431.7,133.6,4430.4z"/>
			<path d="M377.6,4431c0-0.3-0.4-6.3-0.8-13.3c-0.8-12.2-0.8-12.8,0.2-13.7c1.2-1.2,11.5-5.3,12.4-4.9c0.6,0.2,0.7,2.5,0.7,11.5
				c0,12.6-0.1,12.9-3.7,15.9C381.1,4430.7,377.6,4432.5,377.6,4431z"/>
			<path d="M234.3,4413.3c-23.9-1.3-52.4-5.9-72.7-11.4c-12.5-3.4-12.9-3.6-13.1-5.3c-0.2-1.9,2.2-13.4,3.9-18.8
				c6.1-19,23.7-31.2,51-35.2c12.9-1.9,29.8-2.4,33.1-1.1c2.3,1,5.1,3.6,10.3,9.7c4.3,5.1,7.5,7.3,10.5,7.3c3.6,0,5.3-1.3,14.1-11
				c5.7-6.3,6.7-6.8,14.5-6.8c12.6,0,26.7,1.6,36.6,4.1c20.9,5.4,34.6,16.7,39.7,32.6c2.2,6.7,4.8,19.7,4.1,20.9
				c-0.3,0.6-2.9,1.5-7.4,2.7c-23.6,6.5-50.7,10.7-79.3,12.3C269.2,4414,244.8,4414,234.3,4413.3z"/>
			<path d="M374.8,4395.1c-0.2-0.4-1-4.1-1.9-8.5c-0.9-4.3-1.8-8.3-1.9-8.9c-0.4-1.8,1.3-1.6,6.4,0.8c6.4,3,12.7,9.6,11.3,11.9
				c-0.6,0.9-11.1,5.2-12.8,5.3C375.4,4395.7,374.9,4395.4,374.8,4395.1z"/>
			<path d="M132.5,4392.5c-2.9-1.2-5.5-2.4-5.9-2.6c-1.2-0.8-0.6-2.4,2.3-5.6c2.3-2.5,3.9-3.7,7.7-5.5c5.4-2.6,7.3-2.9,6.9-1.1
				c-3.5,16.5-3.6,17-4.9,16.9C138.1,4394.7,135.4,4393.6,132.5,4392.5z"/>
		</g>
	</g>
</g>
<g class="sprite" id="oculus-icon">
	<g style="display:inline;">
		<path d="M19.6,1.1c0.7-0.4,1.3-0.7,2.1-0.8C10.7,2.6,0.1,12.9,0,25.2c-0.2,16.4,15.5,28.5,19.3,31.3C-10.5,17.7,19.6,1.1,19.6,1.1
			z"/>
		<path d="M21.4,56.7h2.7C13.7,18.1,24.7,0.3,24.7,0.3c0.2-0.1,0.4-0.2,0.7-0.3c-1,0-2.1,0.1-3.1,0.3c0.4-0.1,0.7-0.1,0.7-0.1
			C2.6,16.5,19.8,53.5,21.4,56.7z M27.9,56.7h2.7c1.7-3.3,20.4-39.3,0.4-56h0.2c-1-0.3-2.2-0.4-3.2-0.5C36.6,17,28.3,54.5,27.9,56.7
			z"/>
		<path d="M32.8,56.5c4-2.9,18.9-15.3,19.4-30.5c0.3-11-8.3-20.6-18-24.4C37.6,3.8,61.3,21.3,32.8,56.5z"/>
		<path style="fill:#FFFFFF;" d="M21.4,56.7c-1.6-3.2-18.8-40.2,1.7-56.5c0,0-0.3,0-0.7,0.1c-0.2,0-0.4,0.1-0.8,0.1
			c-0.7,0.1-1.5,0.4-2.1,0.8c0,0-30.2,16.5-0.3,55.4c0.1,0,0.1,0.1,0.2,0.1L21.4,56.7z M31.1,0.8c20.1,16.7,1.3,52.8-0.4,56h1.7v0.1
			c0.1-0.1,0.2-0.2,0.4-0.3C61.2,21.3,37.6,4,34.1,1.7c-0.9-0.4-2-0.7-2.9-1C31.1,0.7,31.1,0.8,31.1,0.8z"/>
		<path style="fill:#FFFFFF;" d="M24.1,56.7h3.8C28.3,54.5,36.5,17,28,0.1C27.4,0,26.8,0,26.3,0h-0.8c-0.2,0.1-0.4,0.1-0.7,0.3
			C24.9,0.3,13.8,18.1,24.1,56.7z"/>
		<path style="fill:#1E1E1E;" d="M20.6,68.5l-0.8-10.3h0.4l0.2,2l0.9-1.7l0.2,0.1l-1,2l0.4,7.9H20.6z M25.8,66.8l0.1-6l1.4-2.1
			l-0.2-0.1l-1.2,1.7v-2.6h-0.2v2.6l-1.3-1.9l-0.2,0.1l1.5,2.1l-0.1,6.2 M30.7,66.5l0.7-5.8l-1.2-2.2l0.2-0.1l1,1.9l0.3-2h0.2
			L31,66.5H30.7z"/>
		<path d="M31.8,58.9l-11.7-0.1l-3-4L34.7,55L31.8,58.9z"/>
		<path style="fill:#545454;" d="M19.6,58.2l-0.4-0.5l13.3,0.1l-0.4,0.5L19.6,58.2z M18,55.9l-0.4-0.5l16.7,0.2l-0.5,0.5L18,55.9z"
			/>
	</g>
	<path style="display:inline;" d="M21.2,66.1c2.5,0,4.9,0,7.4,0c0.8,0,1.7,0.1,2.5,0.3c1.7,0.5,3.2,1.7,3.9,3.3
		c0.8,1.6,0.8,3.5,0.1,5.1c-0.7,1.6-2,2.8-3.6,3.4c-0.9,0.3-1.9,0.4-2.8,0.4c-2.4,0-4.8,0-7.1,0c-1,0-2.1-0.2-3-0.6
		c-1.3-0.6-2.4-1.6-3.1-2.9c-0.7-1.4-0.8-3.1-0.4-4.6c0.4-1.2,1.1-2.3,2.1-3c0.8-0.6,1.7-1.1,2.7-1.3C20.3,66.1,20.7,66.1,21.2,66.1
		L21.2,66.1z M19.8,70.6c-0.4,0.3-0.7,0.7-0.8,1.1c-0.1,0.5-0.1,1.1,0.2,1.6c0.3,0.6,1,1,1.7,1l8.5,0c0.5-0.1,1-0.3,1.3-0.6
		c0.3-0.3,0.5-0.7,0.6-1.1c0.1-0.7-0.1-1.4-0.7-1.9c-0.4-0.4-1.1-0.6-1.7-0.6c-2.6,0-5.1,0-7.7,0C20.8,70.2,20.3,70.3,19.8,70.6
		L19.8,70.6z"/>
</g>
<g class="sprite" id="unreal-icon">
	<g id="g16" style="display:inline;">
		<g>
			<g id="g18">
				<g id="g66" transform="translate(312.5538,585.913)">
					<path id="path68" d="M-292.5-511.2c0,0-0.3-1.5,1.3-3.4c1.6-1.9,2.9-2.5,4.2-2.9c0,0,0,0,0,0c0,0,0,0,0,0c0,0-1,0.6-1,1.5
						c0,0.3,0,0.4,0.1,0.6c0.1,0.2,0.2,0.2,0.3,0.2c0.1,0,0.1,0,0.3-0.1v5c0,0,0,0.1,0.1,0.2c0.1,0.1,0.3,0.3,0.6,0.3
						c0.5,0,1.2-0.6,1.2-0.6v-4c0-0.4-0.3-0.9-0.6-1.1c0,0,0,0,0.1,0c0.2,0,0.6,0,0.9,0.2c0.1-0.1,1.2-1.3,3.1-1.7c0,0,0,0,0,0
						c0,0,0,0,0,0c0,0-1.1,1.3-1.4,1.9c-0.1,0-0.1,1.2-0.1,2.4c0,1.2,0,2.3,0.1,2.4c0,0,0.1,0.2,0.4,0.2c0.3,0,0.9-0.2,1.8-1.1l0,0
						l0,0c0,0,0,0.1-0.1,0.1c-0.3,0.5-1.2,2.2-2.8,3.2l0,0c0,0,0,0,0,0l-1.1-0.9l0,0l-1.2,1.2c0,0,0,0,0,0l0,0c0,0-2.7-0.2-3.8-1.8
						c0,0,0,0,0,0c0,0,0,0,0,0c0,0,0.2,0.1,0.4,0.1c0.2,0,0.5-0.1,0.5-0.5v-3.8c0-0.2-0.1-0.4-0.4-0.4c-0.3,0-0.6,0.2-1.2,0.7
						C-292.1-512.2-292.5-511.2-292.5-511.2C-292.5-511.2-292.5-511.2-292.5-511.2C-292.5-511.2-292.5-511.2-292.5-511.2
						 M-286.6-504.8c2.1,0,4-0.8,5.5-2.3c1.5-1.5,2.3-3.4,2.3-5.5c0-2.1-0.8-4-2.3-5.5c-1.5-1.5-3.4-2.3-5.5-2.3
						c-2.1,0-4,0.8-5.5,2.3c-1.5,1.5-2.3,3.4-2.3,5.5c0,2.1,0.8,4,2.3,5.5C-290.6-505.6-288.7-504.8-286.6-504.8"/>
				</g>
				<g id="g70" transform="translate(513,908.3072)">
					<path id="path72" d="M-487-843.1c4.5,0,8.1,3.6,8.1,8.1c0,4.5-3.6,8.1-8.1,8.1s-8.1-3.6-8.1-8.1
						C-495.2-839.4-491.5-843.1-487-843.1 M-487-826.6c2.2,0,4.3-0.9,5.9-2.5c1.6-1.6,2.5-3.7,2.5-5.9s-0.9-4.3-2.5-5.9
						c-1.6-1.6-3.7-2.5-5.9-2.5s-4.3,0.9-5.9,2.5c-1.6,1.6-2.5,3.7-2.5,5.9c0,2.2,0.9,4.3,2.5,5.9
						C-491.4-827.4-489.3-826.6-487-826.6"/>
				</g>
			</g>
		</g>
	</g>
	<g style="display:inline;">
		<path d="M19.6,1.1c0.7-0.4,1.3-0.7,2.1-0.8C10.7,2.6,0.1,12.9,0,25.2c-0.2,16.4,15.5,28.5,19.3,31.3C-10.5,17.7,19.6,1.1,19.6,1.1
			z"/>
		<path d="M21.4,56.7h2.7C13.7,18.1,24.7,0.3,24.7,0.3c0.2-0.1,0.4-0.2,0.7-0.3c-1,0-2.1,0.1-3.1,0.3c0.4-0.1,0.7-0.1,0.7-0.1
			C2.6,16.5,19.8,53.5,21.4,56.7z M27.9,56.7h2.7c1.7-3.3,20.4-39.3,0.4-56h0.2c-1-0.3-2.2-0.4-3.2-0.5C36.6,17,28.3,54.5,27.9,56.7
			z"/>
		<path d="M32.8,56.5c4-2.9,18.9-15.3,19.4-30.5c0.3-11-8.3-20.6-18-24.4C37.6,3.8,61.3,21.3,32.8,56.5z"/>
		<path style="fill:#FFFFFF;" d="M21.4,56.7c-1.6-3.2-18.8-40.2,1.7-56.5c0,0-0.3,0-0.7,0.1c-0.2,0-0.4,0.1-0.8,0.1
			c-0.7,0.1-1.5,0.4-2.1,0.8c0,0-30.2,16.5-0.3,55.4c0.1,0,0.1,0.1,0.2,0.1L21.4,56.7z M31.1,0.8c20.1,16.7,1.3,52.8-0.4,56h1.7v0.1
			c0.1-0.1,0.2-0.2,0.4-0.3C61.2,21.3,37.6,4,34.1,1.7c-0.9-0.4-2-0.7-2.9-1C31.1,0.7,31.1,0.8,31.1,0.8z"/>
		<path style="fill:#FFFFFF;" d="M24.1,56.7h3.8C28.3,54.5,36.5,17,28,0.1C27.4,0,26.8,0,26.3,0h-0.8c-0.2,0.1-0.4,0.1-0.7,0.3
			C24.9,0.3,13.8,18.1,24.1,56.7z"/>
		<path style="fill:#1E1E1E;" d="M20.6,67.3l-0.7-9.1h0.4l0.2,2l0.9-1.7l0.2,0.1l-1,2l0.3,6.4L20.6,67.3z M25.8,65.1l0.1-4.3
			l1.4-2.1l-0.2-0.1l-1.2,1.7v-2.6h-0.2v2.6l-1.3-1.9l-0.2,0.1l1.5,2.1l-0.1,4.5 M30.7,66.5l0.7-5.8l-1.2-2.2l0.2-0.1l1,1.9l0.3-2
			h0.2l-1,8.4L30.7,66.5z"/>
		<path d="M31.8,58.9l-11.7-0.1l-3-4L34.7,55L31.8,58.9z"/>
		<path style="fill:#545454;" d="M19.6,58.2l-0.4-0.5l13.3,0.1l-0.4,0.5L19.6,58.2z M18,55.9l-0.4-0.5l16.7,0.2l-0.5,0.5L18,55.9z"
			/>
	</g>
</g>
</svg>
